<svg width="169" height="104" viewBox="0 0 169 104" fill="none" xmlns="http://www.w3.org/2000/svg">
<path d="M11 12C11 5.37259 16.3726 0 23 0H157C163.627 0 169 5.37258 169 12V92C169 98.6274 163.627 104 157 104H23C16.3726 104 11 98.6274 11 92V12Z" fill="#F9B65E" fill-opacity="0.1"/>
<g filter="url(#filter0_d_0_199)">
<rect x="24" y="16" width="24" height="24" rx="12" fill="#F9B65E"/>
</g>
<path d="M27.5376 85.6382L27.7427 87.0444L28.043 85.7773L30.1523 78.3359H31.3389L33.397 85.7773L33.6899 87.0664L33.917 85.6309L35.5723 78.3359H36.9858L34.4004 89H33.1187L30.9214 81.229L30.7529 80.416L30.5845 81.229L28.3066 89H27.0249L24.4468 78.3359H25.853L27.5376 85.6382ZM42.0103 82.291C41.8052 82.2568 41.583 82.2397 41.3438 82.2397C40.4551 82.2397 39.8521 82.6182 39.5347 83.375V89H38.1797V81.0752H39.498L39.52 81.9907C39.9644 81.2827 40.5942 80.9287 41.4097 80.9287C41.6733 80.9287 41.8735 80.9629 42.0103 81.0312V82.291ZM44.7349 89H43.3799V81.0752H44.7349V89ZM43.27 78.9731C43.27 78.7534 43.3359 78.5679 43.4678 78.4165C43.6045 78.2651 43.8047 78.1895 44.0684 78.1895C44.332 78.1895 44.5322 78.2651 44.6689 78.4165C44.8057 78.5679 44.874 78.7534 44.874 78.9731C44.874 79.1929 44.8057 79.376 44.6689 79.5225C44.5322 79.6689 44.332 79.7422 44.0684 79.7422C43.8047 79.7422 43.6045 79.6689 43.4678 79.5225C43.3359 79.376 43.27 79.1929 43.27 78.9731ZM48.1919 81.0752L48.2358 82.0713C48.8413 81.3096 49.6323 80.9287 50.6089 80.9287C52.2837 80.9287 53.1284 81.8735 53.1431 83.7632V89H51.7881V83.7559C51.7832 83.1846 51.6514 82.7622 51.3926 82.4888C51.1387 82.2153 50.7407 82.0786 50.1987 82.0786C49.7593 82.0786 49.3735 82.1958 49.0415 82.4302C48.7095 82.6646 48.4507 82.9722 48.2651 83.353V89H46.9102V81.0752H48.1919ZM57.3984 85.3306L56.5488 86.2168V89H55.1938V77.75H56.5488V84.5542L57.2739 83.6826L59.7422 81.0752H61.3901L58.3066 84.3857L61.749 89H60.1597L57.3984 85.3306ZM64.2612 89H62.9062V77.75H64.2612V89ZM69.7251 89.1465C68.6509 89.1465 67.7769 88.7949 67.103 88.0918C66.4292 87.3838 66.0923 86.439 66.0923 85.2573V85.0083C66.0923 84.2222 66.2412 83.5215 66.5391 82.9062C66.8418 82.2861 67.2617 81.8027 67.7988 81.4561C68.3408 81.1045 68.9268 80.9287 69.5566 80.9287C70.5869 80.9287 71.3877 81.2681 71.959 81.9468C72.5303 82.6255 72.8159 83.5972 72.8159 84.8618V85.4258H67.4473C67.4668 86.207 67.6938 86.8394 68.1284 87.3228C68.5679 87.8013 69.1245 88.0405 69.7983 88.0405C70.2769 88.0405 70.6821 87.9429 71.0142 87.7476C71.3462 87.5522 71.6367 87.2935 71.8857 86.9712L72.7134 87.6157C72.0493 88.6362 71.0532 89.1465 69.7251 89.1465ZM69.5566 82.042C69.0098 82.042 68.5508 82.2422 68.1797 82.6426C67.8086 83.0381 67.5791 83.5947 67.4912 84.3125H71.4609V84.21C71.4219 83.5215 71.2363 82.9893 70.9043 82.6133C70.5723 82.2324 70.123 82.042 69.5566 82.042ZM79.0049 86.8979C79.0049 86.5317 78.8657 86.2485 78.5874 86.0483C78.314 85.8433 77.833 85.6675 77.1445 85.521C76.4609 85.3745 75.9165 85.1987 75.5112 84.9937C75.1108 84.7886 74.813 84.5444 74.6177 84.2612C74.4272 83.978 74.332 83.6411 74.332 83.2505C74.332 82.6011 74.6055 82.0518 75.1523 81.6025C75.7041 81.1533 76.4072 80.9287 77.2617 80.9287C78.1602 80.9287 78.8877 81.1606 79.4443 81.6245C80.0059 82.0884 80.2866 82.6816 80.2866 83.4043H78.9243C78.9243 83.0332 78.7656 82.7134 78.4482 82.4448C78.1357 82.1763 77.7402 82.042 77.2617 82.042C76.7686 82.042 76.3828 82.1494 76.1045 82.3643C75.8262 82.5791 75.687 82.8599 75.687 83.2065C75.687 83.5337 75.8164 83.7803 76.0752 83.9463C76.334 84.1123 76.8003 84.271 77.4741 84.4224C78.1528 84.5737 78.7021 84.7544 79.1221 84.9644C79.542 85.1743 79.8521 85.4282 80.0522 85.7261C80.2573 86.019 80.3599 86.3779 80.3599 86.8027C80.3599 87.5107 80.0767 88.0796 79.5103 88.5093C78.9438 88.9341 78.209 89.1465 77.3057 89.1465C76.6709 89.1465 76.1094 89.0342 75.6211 88.8096C75.1328 88.585 74.7495 88.2725 74.4712 87.8721C74.1978 87.4668 74.061 87.0298 74.061 86.561H75.416C75.4404 87.0151 75.6211 87.3765 75.958 87.645C76.2998 87.9087 76.749 88.0405 77.3057 88.0405C77.8184 88.0405 78.2285 87.938 78.5361 87.7329C78.8486 87.5229 79.0049 87.2446 79.0049 86.8979Z" fill="#071330"/>
<path d="M36 21C36 26.0768 36 29.4232 36 34.5" stroke="white"/>
<line x1="29" y1="27.5" x2="43" y2="27.5" stroke="white"/>
<defs>
<filter id="filter0_d_0_199" x="0" y="4.5714" width="72" height="72" filterUnits="userSpaceOnUse" color-interpolation-filters="sRGB">
<feFlood flood-opacity="0" result="BackgroundImageFix"/>
<feColorMatrix in="SourceAlpha" type="matrix" values="0 0 0 0 0 0 0 0 0 0 0 0 0 0 0 0 0 0 127 0" result="hardAlpha"/>
<feOffset dy="12.5714"/>
<feGaussianBlur stdDeviation="12"/>
<feColorMatrix type="matrix" values="0 0 0 0 0.976471 0 0 0 0 0.713726 0 0 0 0 0.368627 0 0 0 0.2 0"/>
<feBlend mode="normal" in2="BackgroundImageFix" result="effect1_dropShadow_0_199"/>
<feBlend mode="normal" in="SourceGraphic" in2="effect1_dropShadow_0_199" result="shape"/>
</filter>
</defs>
</svg>
