<svg width="546" height="104" viewBox="0 0 546 104" fill="none" xmlns="http://www.w3.org/2000/svg">
<path d="M11 12C11 5.37259 16.3726 0 23 0H534C540.627 0 546 5.37258 546 12V92C546 98.6274 540.627 104 534 104H23C16.3726 104 11 98.6274 11 92V12Z" fill="#F7F8FC"/>
<g filter="url(#filter0_d_0_227)">
<rect x="24" y="16" width="24" height="24" rx="12" fill="#B5B8C1"/>
</g>
<path d="M31.6016 86.0312H26.8359L25.7656 89H24.2188L28.5625 77.625H29.875L34.2266 89H32.6875L31.6016 86.0312ZM27.2891 84.7969H31.1562L29.2188 79.4766L27.2891 84.7969ZM36.8984 80.5469L36.9453 81.6094C37.5911 80.7969 38.4349 80.3906 39.4766 80.3906C41.263 80.3906 42.1641 81.3984 42.1797 83.4141V89H40.7344V83.4062C40.7292 82.7969 40.5885 82.3464 40.3125 82.0547C40.0417 81.763 39.6172 81.6172 39.0391 81.6172C38.5703 81.6172 38.1589 81.7422 37.8047 81.9922C37.4505 82.2422 37.1745 82.5703 36.9766 82.9766V89H35.5312V80.5469H36.8984ZM44.0078 84.7031C44.0078 83.4062 44.3151 82.3646 44.9297 81.5781C45.5443 80.7865 46.349 80.3906 47.3438 80.3906C48.3333 80.3906 49.1172 80.7292 49.6953 81.4062V77H51.1406V89H49.8125L49.7422 88.0938C49.1641 88.8021 48.3594 89.1562 47.3281 89.1562C46.349 89.1562 45.5495 88.7552 44.9297 87.9531C44.3151 87.151 44.0078 86.1042 44.0078 84.8125V84.7031ZM45.4531 84.8672C45.4531 85.8255 45.651 86.5755 46.0469 87.1172C46.4427 87.6589 46.9896 87.9297 47.6875 87.9297C48.6042 87.9297 49.2734 87.5182 49.6953 86.6953V82.8125C49.263 82.0156 48.599 81.6172 47.7031 81.6172C46.9948 81.6172 46.4427 81.8906 46.0469 82.4375C45.651 82.9844 45.4531 83.7943 45.4531 84.8672ZM59.5234 77.625L63.2422 86.9062L66.9609 77.625H68.9062V89H67.4062V84.5703L67.5469 79.7891L63.8125 89H62.6641L58.9375 79.8125L59.0859 84.5703V89H57.5859V77.625H59.5234ZM76.5469 89C76.4635 88.8333 76.3958 88.5365 76.3438 88.1094C75.6719 88.8073 74.8698 89.1562 73.9375 89.1562C73.1042 89.1562 72.4193 88.9219 71.8828 88.4531C71.3516 87.9792 71.0859 87.3802 71.0859 86.6562C71.0859 85.776 71.4193 85.0938 72.0859 84.6094C72.7578 84.1198 73.7005 83.875 74.9141 83.875H76.3203V83.2109C76.3203 82.7057 76.1693 82.3047 75.8672 82.0078C75.5651 81.7057 75.1198 81.5547 74.5312 81.5547C74.0156 81.5547 73.5833 81.6849 73.2344 81.9453C72.8854 82.2057 72.7109 82.5208 72.7109 82.8906H71.2578C71.2578 82.4688 71.4062 82.0625 71.7031 81.6719C72.0052 81.276 72.4115 80.9635 72.9219 80.7344C73.4375 80.5052 74.0026 80.3906 74.6172 80.3906C75.5911 80.3906 76.3542 80.6354 76.9062 81.125C77.4583 81.6094 77.7448 82.2786 77.7656 83.1328V87.0234C77.7656 87.7995 77.8646 88.4167 78.0625 88.875V89H76.5469ZM74.1484 87.8984C74.6016 87.8984 75.0312 87.7812 75.4375 87.5469C75.8438 87.3125 76.138 87.0078 76.3203 86.6328V84.8984H75.1875C73.4167 84.8984 72.5312 85.4167 72.5312 86.4531C72.5312 86.9062 72.6823 87.2604 72.9844 87.5156C73.2865 87.7708 73.6745 87.8984 74.1484 87.8984ZM81.3984 80.5469L81.4453 81.6094C82.0911 80.7969 82.9349 80.3906 83.9766 80.3906C85.763 80.3906 86.6641 81.3984 86.6797 83.4141V89H85.2344V83.4062C85.2292 82.7969 85.0885 82.3464 84.8125 82.0547C84.5417 81.763 84.1172 81.6172 83.5391 81.6172C83.0703 81.6172 82.6589 81.7422 82.3047 81.9922C81.9505 82.2422 81.6745 82.5703 81.4766 82.9766V89H80.0312V80.5469H81.3984ZM91.625 86.8828L93.5938 80.5469H95.1406L91.7422 90.3047C91.2161 91.7109 90.3802 92.4141 89.2344 92.4141L88.9609 92.3906L88.4219 92.2891V91.1172L88.8125 91.1484C89.3021 91.1484 89.6823 91.0495 89.9531 90.8516C90.2292 90.6536 90.4557 90.2917 90.6328 89.7656L90.9531 88.9062L87.9375 80.5469H89.5156L91.625 86.8828ZM102.57 77.625L106.289 86.9062L110.008 77.625H111.953V89H110.453V84.5703L110.594 79.7891L106.859 89H105.711L101.984 79.8125L102.133 84.5703V89H100.633V77.625H102.57ZM113.992 84.6953C113.992 83.8672 114.154 83.1224 114.477 82.4609C114.805 81.7995 115.258 81.2891 115.836 80.9297C116.419 80.5703 117.083 80.3906 117.828 80.3906C118.979 80.3906 119.909 80.7891 120.617 81.5859C121.331 82.3828 121.688 83.4427 121.688 84.7656V84.8672C121.688 85.6901 121.529 86.4297 121.211 87.0859C120.898 87.737 120.448 88.2448 119.859 88.6094C119.276 88.974 118.604 89.1562 117.844 89.1562C116.698 89.1562 115.768 88.7578 115.055 87.9609C114.346 87.1641 113.992 86.1094 113.992 84.7969V84.6953ZM115.445 84.8672C115.445 85.8047 115.661 86.5573 116.094 87.125C116.531 87.6927 117.115 87.9766 117.844 87.9766C118.578 87.9766 119.161 87.6901 119.594 87.1172C120.026 86.5391 120.242 85.7318 120.242 84.6953C120.242 83.7682 120.021 83.0182 119.578 82.4453C119.141 81.8672 118.557 81.5781 117.828 81.5781C117.115 81.5781 116.539 81.862 116.102 82.4297C115.664 82.9974 115.445 83.8099 115.445 84.8672ZM127.586 81.8438C127.367 81.8073 127.13 81.7891 126.875 81.7891C125.927 81.7891 125.284 82.1927 124.945 83V89H123.5V80.5469H124.906L124.93 81.5234C125.404 80.7682 126.076 80.3906 126.945 80.3906C127.227 80.3906 127.44 80.4271 127.586 80.5V81.8438ZM132.273 89.1562C131.128 89.1562 130.195 88.7812 129.477 88.0312C128.758 87.276 128.398 86.2682 128.398 85.0078V84.7422C128.398 83.9036 128.557 83.1562 128.875 82.5C129.198 81.8385 129.646 81.3229 130.219 80.9531C130.797 80.5781 131.422 80.3906 132.094 80.3906C133.193 80.3906 134.047 80.7526 134.656 81.4766C135.266 82.2005 135.57 83.237 135.57 84.5859V85.1875H129.844C129.865 86.0208 130.107 86.6953 130.57 87.2109C131.039 87.7214 131.633 87.9766 132.352 87.9766C132.862 87.9766 133.294 87.8724 133.648 87.6641C134.003 87.4557 134.312 87.1797 134.578 86.8359L135.461 87.5234C134.753 88.612 133.69 89.1562 132.273 89.1562ZM132.094 81.5781C131.51 81.5781 131.021 81.7917 130.625 82.2188C130.229 82.6406 129.984 83.2344 129.891 84H134.125V83.8906C134.083 83.1562 133.885 82.5885 133.531 82.1875C133.177 81.7812 132.698 81.5781 132.094 81.5781ZM149.812 85.3906C149.672 86.5938 149.227 87.5234 148.477 88.1797C147.732 88.8307 146.74 89.1562 145.5 89.1562C144.156 89.1562 143.078 88.6745 142.266 87.7109C141.458 86.7474 141.055 85.4583 141.055 83.8438V82.75C141.055 81.6927 141.242 80.763 141.617 79.9609C141.997 79.1589 142.534 78.5443 143.227 78.1172C143.919 77.6849 144.721 77.4688 145.633 77.4688C146.841 77.4688 147.81 77.8073 148.539 78.4844C149.268 79.1562 149.693 80.0885 149.812 81.2812H148.305C148.174 80.375 147.891 79.7188 147.453 79.3125C147.021 78.9062 146.414 78.7031 145.633 78.7031C144.674 78.7031 143.922 79.0573 143.375 79.7656C142.833 80.474 142.562 81.4818 142.562 82.7891V83.8906C142.562 85.125 142.82 86.1068 143.336 86.8359C143.852 87.5651 144.573 87.9297 145.5 87.9297C146.333 87.9297 146.971 87.7422 147.414 87.3672C147.862 86.987 148.159 86.3281 148.305 85.3906H149.812ZM151.258 84.6953C151.258 83.8672 151.419 83.1224 151.742 82.4609C152.07 81.7995 152.523 81.2891 153.102 80.9297C153.685 80.5703 154.349 80.3906 155.094 80.3906C156.245 80.3906 157.174 80.7891 157.883 81.5859C158.596 82.3828 158.953 83.4427 158.953 84.7656V84.8672C158.953 85.6901 158.794 86.4297 158.477 87.0859C158.164 87.737 157.714 88.2448 157.125 88.6094C156.542 88.974 155.87 89.1562 155.109 89.1562C153.964 89.1562 153.034 88.7578 152.32 87.9609C151.612 87.1641 151.258 86.1094 151.258 84.7969V84.6953ZM152.711 84.8672C152.711 85.8047 152.927 86.5573 153.359 87.125C153.797 87.6927 154.38 87.9766 155.109 87.9766C155.844 87.9766 156.427 87.6901 156.859 87.1172C157.292 86.5391 157.508 85.7318 157.508 84.6953C157.508 83.7682 157.286 83.0182 156.844 82.4453C156.406 81.8672 155.823 81.5781 155.094 81.5781C154.38 81.5781 153.805 81.862 153.367 82.4297C152.93 82.9974 152.711 83.8099 152.711 84.8672ZM162.133 80.5469L162.18 81.6094C162.826 80.7969 163.669 80.3906 164.711 80.3906C166.497 80.3906 167.398 81.3984 167.414 83.4141V89H165.969V83.4062C165.964 82.7969 165.823 82.3464 165.547 82.0547C165.276 81.763 164.852 81.6172 164.273 81.6172C163.805 81.6172 163.393 81.7422 163.039 81.9922C162.685 82.2422 162.409 82.5703 162.211 82.9766V89H160.766V80.5469H162.133ZM169.242 84.7031C169.242 83.4062 169.549 82.3646 170.164 81.5781C170.779 80.7865 171.583 80.3906 172.578 80.3906C173.568 80.3906 174.352 80.7292 174.93 81.4062V77H176.375V89H175.047L174.977 88.0938C174.398 88.8021 173.594 89.1562 172.562 89.1562C171.583 89.1562 170.784 88.7552 170.164 87.9531C169.549 87.151 169.242 86.1042 169.242 84.8125V84.7031ZM170.688 84.8672C170.688 85.8255 170.885 86.5755 171.281 87.1172C171.677 87.6589 172.224 87.9297 172.922 87.9297C173.839 87.9297 174.508 87.5182 174.93 86.6953V82.8125C174.497 82.0156 173.833 81.6172 172.938 81.6172C172.229 81.6172 171.677 81.8906 171.281 82.4375C170.885 82.9844 170.688 83.7943 170.688 84.8672ZM180.195 89H178.75V80.5469H180.195V89ZM178.633 78.3047C178.633 78.0703 178.703 77.8724 178.844 77.7109C178.99 77.5495 179.203 77.4688 179.484 77.4688C179.766 77.4688 179.979 77.5495 180.125 77.7109C180.271 77.8724 180.344 78.0703 180.344 78.3047C180.344 78.5391 180.271 78.7344 180.125 78.8906C179.979 79.0469 179.766 79.125 179.484 79.125C179.203 79.125 178.99 79.0469 178.844 78.8906C178.703 78.7344 178.633 78.5391 178.633 78.3047ZM184.477 78.5V80.5469H186.055V81.6641H184.477V86.9062C184.477 87.2448 184.547 87.5 184.688 87.6719C184.828 87.8385 185.068 87.9219 185.406 87.9219C185.573 87.9219 185.802 87.8906 186.094 87.8281V89C185.714 89.1042 185.344 89.1562 184.984 89.1562C184.339 89.1562 183.852 88.9609 183.523 88.5703C183.195 88.1797 183.031 87.625 183.031 86.9062V81.6641H181.492V80.5469H183.031V78.5H184.477ZM189.32 89H187.875V80.5469H189.32V89ZM187.758 78.3047C187.758 78.0703 187.828 77.8724 187.969 77.7109C188.115 77.5495 188.328 77.4688 188.609 77.4688C188.891 77.4688 189.104 77.5495 189.25 77.7109C189.396 77.8724 189.469 78.0703 189.469 78.3047C189.469 78.5391 189.396 78.7344 189.25 78.8906C189.104 79.0469 188.891 79.125 188.609 79.125C188.328 79.125 188.115 79.0469 187.969 78.8906C187.828 78.7344 187.758 78.5391 187.758 78.3047ZM191.258 84.6953C191.258 83.8672 191.419 83.1224 191.742 82.4609C192.07 81.7995 192.523 81.2891 193.102 80.9297C193.685 80.5703 194.349 80.3906 195.094 80.3906C196.245 80.3906 197.174 80.7891 197.883 81.5859C198.596 82.3828 198.953 83.4427 198.953 84.7656V84.8672C198.953 85.6901 198.794 86.4297 198.477 87.0859C198.164 87.737 197.714 88.2448 197.125 88.6094C196.542 88.974 195.87 89.1562 195.109 89.1562C193.964 89.1562 193.034 88.7578 192.32 87.9609C191.612 87.1641 191.258 86.1094 191.258 84.7969V84.6953ZM192.711 84.8672C192.711 85.8047 192.927 86.5573 193.359 87.125C193.797 87.6927 194.38 87.9766 195.109 87.9766C195.844 87.9766 196.427 87.6901 196.859 87.1172C197.292 86.5391 197.508 85.7318 197.508 84.6953C197.508 83.7682 197.286 83.0182 196.844 82.4453C196.406 81.8672 195.823 81.5781 195.094 81.5781C194.38 81.5781 193.805 81.862 193.367 82.4297C192.93 82.9974 192.711 83.8099 192.711 84.8672ZM202.133 80.5469L202.18 81.6094C202.826 80.7969 203.669 80.3906 204.711 80.3906C206.497 80.3906 207.398 81.3984 207.414 83.4141V89H205.969V83.4062C205.964 82.7969 205.823 82.3464 205.547 82.0547C205.276 81.763 204.852 81.6172 204.273 81.6172C203.805 81.6172 203.393 81.7422 203.039 81.9922C202.685 82.2422 202.409 82.5703 202.211 82.9766V89H200.766V80.5469H202.133ZM214.516 86.7578C214.516 86.3672 214.367 86.0651 214.07 85.8516C213.779 85.6328 213.266 85.4453 212.531 85.2891C211.802 85.1328 211.221 84.9453 210.789 84.7266C210.362 84.5078 210.044 84.2474 209.836 83.9453C209.633 83.6432 209.531 83.2839 209.531 82.8672C209.531 82.1745 209.823 81.5885 210.406 81.1094C210.995 80.6302 211.745 80.3906 212.656 80.3906C213.615 80.3906 214.391 80.638 214.984 81.1328C215.583 81.6276 215.883 82.2604 215.883 83.0312H214.43C214.43 82.6354 214.26 82.2943 213.922 82.0078C213.589 81.7214 213.167 81.5781 212.656 81.5781C212.13 81.5781 211.719 81.6927 211.422 81.9219C211.125 82.151 210.977 82.4505 210.977 82.8203C210.977 83.1693 211.115 83.4323 211.391 83.6094C211.667 83.7865 212.164 83.9557 212.883 84.1172C213.607 84.2786 214.193 84.4714 214.641 84.6953C215.089 84.9193 215.419 85.1901 215.633 85.5078C215.852 85.8203 215.961 86.2031 215.961 86.6562C215.961 87.4115 215.659 88.0182 215.055 88.4766C214.451 88.9297 213.667 89.1562 212.703 89.1562C212.026 89.1562 211.427 89.0365 210.906 88.7969C210.385 88.5573 209.977 88.224 209.68 87.7969C209.388 87.3646 209.242 86.8984 209.242 86.3984H210.688C210.714 86.8828 210.906 87.2682 211.266 87.5547C211.63 87.8359 212.109 87.9766 212.703 87.9766C213.25 87.9766 213.688 87.8672 214.016 87.6484C214.349 87.4245 214.516 87.1276 214.516 86.7578ZM217.875 88.2422C217.875 87.9922 217.948 87.7839 218.094 87.6172C218.245 87.4505 218.469 87.3672 218.766 87.3672C219.062 87.3672 219.286 87.4505 219.438 87.6172C219.594 87.7839 219.672 87.9922 219.672 88.2422C219.672 88.4818 219.594 88.6823 219.438 88.8438C219.286 89.0052 219.062 89.0859 218.766 89.0859C218.469 89.0859 218.245 89.0052 218.094 88.8438C217.948 88.6823 217.875 88.4818 217.875 88.2422ZM222.094 88.2422C222.094 87.9922 222.167 87.7839 222.312 87.6172C222.464 87.4505 222.688 87.3672 222.984 87.3672C223.281 87.3672 223.505 87.4505 223.656 87.6172C223.812 87.7839 223.891 87.9922 223.891 88.2422C223.891 88.4818 223.812 88.6823 223.656 88.8438C223.505 89.0052 223.281 89.0859 222.984 89.0859C222.688 89.0859 222.464 89.0052 222.312 88.8438C222.167 88.6823 222.094 88.4818 222.094 88.2422ZM226.312 88.2422C226.312 87.9922 226.385 87.7839 226.531 87.6172C226.682 87.4505 226.906 87.3672 227.203 87.3672C227.5 87.3672 227.724 87.4505 227.875 87.6172C228.031 87.7839 228.109 87.9922 228.109 88.2422C228.109 88.4818 228.031 88.6823 227.875 88.8438C227.724 89.0052 227.5 89.0859 227.203 89.0859C226.906 89.0859 226.682 89.0052 226.531 88.8438C226.385 88.6823 226.312 88.4818 226.312 88.2422Z" fill="#071330"/>
<path d="M36 21C36 26.0768 36 29.4232 36 34.5" stroke="white"/>
<line x1="29" y1="27.5" x2="43" y2="27.5" stroke="white"/>
<defs>
<filter id="filter0_d_0_227" x="0" y="4.5714" width="72" height="72" filterUnits="userSpaceOnUse" color-interpolation-filters="sRGB">
<feFlood flood-opacity="0" result="BackgroundImageFix"/>
<feColorMatrix in="SourceAlpha" type="matrix" values="0 0 0 0 0 0 0 0 0 0 0 0 0 0 0 0 0 0 127 0" result="hardAlpha"/>
<feOffset dy="12.5714"/>
<feGaussianBlur stdDeviation="12"/>
<feColorMatrix type="matrix" values="0 0 0 0 0.709804 0 0 0 0 0.721569 0 0 0 0 0.756863 0 0 0 0.2 0"/>
<feBlend mode="normal" in2="BackgroundImageFix" result="effect1_dropShadow_0_227"/>
<feBlend mode="normal" in="SourceGraphic" in2="effect1_dropShadow_0_227" result="shape"/>
</filter>
</defs>
</svg>
