<svg width="169" height="104" viewBox="0 0 169 104" fill="none" xmlns="http://www.w3.org/2000/svg">
<path d="M11 12C11 5.37259 16.3726 0 23 0H157C163.627 0 169 5.37258 169 12V92C169 98.6274 163.627 104 157 104H23C16.3726 104 11 98.6274 11 92V12Z" fill="#ABE050" fill-opacity="0.1"/>
<g filter="url(#filter0_d_0_213)">
<rect x="24" y="16" width="24" height="24" rx="12" fill="#ABE050"/>
</g>
<path d="M28.6719 83.9297C27.3854 83.5599 26.4479 83.1068 25.8594 82.5703C25.276 82.0286 24.9844 81.362 24.9844 80.5703C24.9844 79.6745 25.3411 78.9349 26.0547 78.3516C26.7734 77.763 27.7057 77.4688 28.8516 77.4688C29.6328 77.4688 30.3281 77.6198 30.9375 77.9219C31.5521 78.224 32.026 78.6406 32.3594 79.1719C32.6979 79.7031 32.8672 80.2839 32.8672 80.9141H31.3594C31.3594 80.2266 31.1406 79.6875 30.7031 79.2969C30.2656 78.901 29.6484 78.7031 28.8516 78.7031C28.112 78.7031 27.5339 78.8672 27.1172 79.1953C26.7057 79.5182 26.5 79.9688 26.5 80.5469C26.5 81.0104 26.6953 81.4036 27.0859 81.7266C27.4818 82.0443 28.151 82.3359 29.0938 82.6016C30.0417 82.8672 30.7812 83.1615 31.3125 83.4844C31.849 83.8021 32.2448 84.1745 32.5 84.6016C32.7604 85.0286 32.8906 85.5312 32.8906 86.1094C32.8906 87.0312 32.5312 87.7708 31.8125 88.3281C31.0938 88.8802 30.1328 89.1562 28.9297 89.1562C28.1484 89.1562 27.4193 89.0078 26.7422 88.7109C26.0651 88.4089 25.5417 87.9974 25.1719 87.4766C24.8073 86.9557 24.625 86.3646 24.625 85.7031H26.1328C26.1328 86.3906 26.3854 86.9349 26.8906 87.3359C27.401 87.7318 28.0807 87.9297 28.9297 87.9297C29.7214 87.9297 30.3281 87.7682 30.75 87.4453C31.1719 87.1224 31.3828 86.6823 31.3828 86.125C31.3828 85.5677 31.1875 85.138 30.7969 84.8359C30.4062 84.5286 29.6979 84.2266 28.6719 83.9297ZM36.5547 78.5V80.5469H38.1328V81.6641H36.5547V86.9062C36.5547 87.2448 36.625 87.5 36.7656 87.6719C36.9062 87.8385 37.1458 87.9219 37.4844 87.9219C37.651 87.9219 37.8802 87.8906 38.1719 87.8281V89C37.7917 89.1042 37.4219 89.1562 37.0625 89.1562C36.4167 89.1562 35.9297 88.9609 35.6016 88.5703C35.2734 88.1797 35.1094 87.625 35.1094 86.9062V81.6641H33.5703V80.5469H35.1094V78.5H36.5547ZM43.9141 81.8438C43.6953 81.8073 43.4583 81.7891 43.2031 81.7891C42.2552 81.7891 41.612 82.1927 41.2734 83V89H39.8281V80.5469H41.2344L41.2578 81.5234C41.7318 80.7682 42.4036 80.3906 43.2734 80.3906C43.5547 80.3906 43.7682 80.4271 43.9141 80.5V81.8438ZM48.6016 89.1562C47.4557 89.1562 46.5234 88.7812 45.8047 88.0312C45.0859 87.276 44.7266 86.2682 44.7266 85.0078V84.7422C44.7266 83.9036 44.8854 83.1562 45.2031 82.5C45.526 81.8385 45.974 81.3229 46.5469 80.9531C47.125 80.5781 47.75 80.3906 48.4219 80.3906C49.5208 80.3906 50.375 80.7526 50.9844 81.4766C51.5938 82.2005 51.8984 83.237 51.8984 84.5859V85.1875H46.1719C46.1927 86.0208 46.4349 86.6953 46.8984 87.2109C47.3672 87.7214 47.9609 87.9766 48.6797 87.9766C49.1901 87.9766 49.6224 87.8724 49.9766 87.6641C50.3307 87.4557 50.6406 87.1797 50.9062 86.8359L51.7891 87.5234C51.0807 88.612 50.0182 89.1562 48.6016 89.1562ZM48.4219 81.5781C47.8385 81.5781 47.349 81.7917 46.9531 82.2188C46.5573 82.6406 46.3125 83.2344 46.2188 84H50.4531V83.8906C50.4115 83.1562 50.2135 82.5885 49.8594 82.1875C49.5052 81.7812 49.026 81.5781 48.4219 81.5781ZM55.5391 78.5V80.5469H57.1172V81.6641H55.5391V86.9062C55.5391 87.2448 55.6094 87.5 55.75 87.6719C55.8906 87.8385 56.1302 87.9219 56.4688 87.9219C56.6354 87.9219 56.8646 87.8906 57.1562 87.8281V89C56.776 89.1042 56.4062 89.1562 56.0469 89.1562C55.401 89.1562 54.9141 88.9609 54.5859 88.5703C54.2578 88.1797 54.0938 87.625 54.0938 86.9062V81.6641H52.5547V80.5469H54.0938V78.5H55.5391ZM62.2031 87.9766C62.7188 87.9766 63.1693 87.8203 63.5547 87.5078C63.9401 87.1953 64.1536 86.8047 64.1953 86.3359H65.5625C65.5365 86.8203 65.3698 87.2812 65.0625 87.7188C64.7552 88.1562 64.3438 88.5052 63.8281 88.7656C63.3177 89.026 62.776 89.1562 62.2031 89.1562C61.0521 89.1562 60.1354 88.7734 59.4531 88.0078C58.776 87.237 58.4375 86.1849 58.4375 84.8516V84.6094C58.4375 83.7865 58.5885 83.0547 58.8906 82.4141C59.1927 81.7734 59.625 81.276 60.1875 80.9219C60.7552 80.5677 61.4245 80.3906 62.1953 80.3906C63.1432 80.3906 63.9297 80.6745 64.5547 81.2422C65.1849 81.8099 65.5208 82.5469 65.5625 83.4531H64.1953C64.1536 82.9062 63.9453 82.4583 63.5703 82.1094C63.2005 81.7552 62.7422 81.5781 62.1953 81.5781C61.4609 81.5781 60.8906 81.8438 60.4844 82.375C60.0833 82.901 59.8828 83.6641 59.8828 84.6641V84.9375C59.8828 85.9115 60.0833 86.6615 60.4844 87.1875C60.8854 87.7135 61.4583 87.9766 62.2031 87.9766ZM68.6328 81.5703C69.2734 80.7839 70.1068 80.3906 71.1328 80.3906C72.9193 80.3906 73.8203 81.3984 73.8359 83.4141V89H72.3906V83.4062C72.3854 82.7969 72.2448 82.3464 71.9688 82.0547C71.6979 81.763 71.2734 81.6172 70.6953 81.6172C70.2266 81.6172 69.8151 81.7422 69.4609 81.9922C69.1068 82.2422 68.8307 82.5703 68.6328 82.9766V89H67.1875V77H68.6328V81.5703ZM82.1328 77.625L85.8516 86.9062L89.5703 77.625H91.5156V89H90.0156V84.5703L90.1562 79.7891L86.4219 89H85.2734L81.5469 79.8125L81.6953 84.5703V89H80.1953V77.625H82.1328ZM99.1562 89C99.0729 88.8333 99.0052 88.5365 98.9531 88.1094C98.2812 88.8073 97.4792 89.1562 96.5469 89.1562C95.7135 89.1562 95.0286 88.9219 94.4922 88.4531C93.9609 87.9792 93.6953 87.3802 93.6953 86.6562C93.6953 85.776 94.0286 85.0938 94.6953 84.6094C95.3672 84.1198 96.3099 83.875 97.5234 83.875H98.9297V83.2109C98.9297 82.7057 98.7786 82.3047 98.4766 82.0078C98.1745 81.7057 97.7292 81.5547 97.1406 81.5547C96.625 81.5547 96.1927 81.6849 95.8438 81.9453C95.4948 82.2057 95.3203 82.5208 95.3203 82.8906H93.8672C93.8672 82.4688 94.0156 82.0625 94.3125 81.6719C94.6146 81.276 95.0208 80.9635 95.5312 80.7344C96.0469 80.5052 96.612 80.3906 97.2266 80.3906C98.2005 80.3906 98.9635 80.6354 99.5156 81.125C100.068 81.6094 100.354 82.2786 100.375 83.1328V87.0234C100.375 87.7995 100.474 88.4167 100.672 88.875V89H99.1562ZM96.7578 87.8984C97.2109 87.8984 97.6406 87.7812 98.0469 87.5469C98.4531 87.3125 98.7474 87.0078 98.9297 86.6328V84.8984H97.7969C96.026 84.8984 95.1406 85.4167 95.1406 86.4531C95.1406 86.9062 95.2917 87.2604 95.5938 87.5156C95.8958 87.7708 96.2839 87.8984 96.7578 87.8984ZM106.727 81.8438C106.508 81.8073 106.271 81.7891 106.016 81.7891C105.068 81.7891 104.424 82.1927 104.086 83V89H102.641V80.5469H104.047L104.07 81.5234C104.544 80.7682 105.216 80.3906 106.086 80.3906C106.367 80.3906 106.581 80.4271 106.727 80.5V81.8438ZM110.422 85.0859L109.516 86.0312V89H108.07V77H109.516V84.2578L110.289 83.3281L112.922 80.5469H114.68L111.391 84.0781L115.062 89H113.367L110.422 85.0859ZM121.094 86.7578C121.094 86.3672 120.945 86.0651 120.648 85.8516C120.357 85.6328 119.844 85.4453 119.109 85.2891C118.38 85.1328 117.799 84.9453 117.367 84.7266C116.94 84.5078 116.622 84.2474 116.414 83.9453C116.211 83.6432 116.109 83.2839 116.109 82.8672C116.109 82.1745 116.401 81.5885 116.984 81.1094C117.573 80.6302 118.323 80.3906 119.234 80.3906C120.193 80.3906 120.969 80.638 121.562 81.1328C122.161 81.6276 122.461 82.2604 122.461 83.0312H121.008C121.008 82.6354 120.839 82.2943 120.5 82.0078C120.167 81.7214 119.745 81.5781 119.234 81.5781C118.708 81.5781 118.297 81.6927 118 81.9219C117.703 82.151 117.555 82.4505 117.555 82.8203C117.555 83.1693 117.693 83.4323 117.969 83.6094C118.245 83.7865 118.742 83.9557 119.461 84.1172C120.185 84.2786 120.771 84.4714 121.219 84.6953C121.667 84.9193 121.997 85.1901 122.211 85.5078C122.43 85.8203 122.539 86.2031 122.539 86.6562C122.539 87.4115 122.237 88.0182 121.633 88.4766C121.029 88.9297 120.245 89.1562 119.281 89.1562C118.604 89.1562 118.005 89.0365 117.484 88.7969C116.964 88.5573 116.555 88.224 116.258 87.7969C115.966 87.3646 115.82 86.8984 115.82 86.3984H117.266C117.292 86.8828 117.484 87.2682 117.844 87.5547C118.208 87.8359 118.688 87.9766 119.281 87.9766C119.828 87.9766 120.266 87.8672 120.594 87.6484C120.927 87.4245 121.094 87.1276 121.094 86.7578Z" fill="#071330"/>
<path d="M36 21C36 26.0768 36 29.4232 36 34.5" stroke="white"/>
<line x1="29" y1="27.5" x2="43" y2="27.5" stroke="white"/>
<defs>
<filter id="filter0_d_0_213" x="0" y="4.5714" width="72" height="72" filterUnits="userSpaceOnUse" color-interpolation-filters="sRGB">
<feFlood flood-opacity="0" result="BackgroundImageFix"/>
<feColorMatrix in="SourceAlpha" type="matrix" values="0 0 0 0 0 0 0 0 0 0 0 0 0 0 0 0 0 0 127 0" result="hardAlpha"/>
<feOffset dy="12.5714"/>
<feGaussianBlur stdDeviation="12"/>
<feColorMatrix type="matrix" values="0 0 0 0 0.670588 0 0 0 0 0.878431 0 0 0 0 0.313726 0 0 0 0.2 0"/>
<feBlend mode="normal" in2="BackgroundImageFix" result="effect1_dropShadow_0_213"/>
<feBlend mode="normal" in="SourceGraphic" in2="effect1_dropShadow_0_213" result="shape"/>
</filter>
</defs>
</svg>
