<svg width="169" height="104" viewBox="0 0 169 104" fill="none" xmlns="http://www.w3.org/2000/svg">
<path d="M11 12C11 5.37259 16.3726 0 23 0H157C163.627 0 169 5.37258 169 12V92C169 98.6274 163.627 104 157 104H23C16.3726 104 11 98.6274 11 92V12Z" fill="#F6845E" fill-opacity="0.1"/>
<g filter="url(#filter0_d_0_192)">
<rect x="24" y="16" width="24" height="24" rx="12" fill="#F6845E"/>
</g>
<path d="M29.4922 84.3984H26.8203V89H25.3125V77.625H29.0781C30.3594 77.625 31.3438 77.9167 32.0312 78.5C32.724 79.0833 33.0703 79.9323 33.0703 81.0469C33.0703 81.7552 32.8776 82.3724 32.4922 82.8984C32.112 83.4245 31.5807 83.8177 30.8984 84.0781L33.5703 88.9062V89H31.9609L29.4922 84.3984ZM26.8203 83.1719H29.125C29.8698 83.1719 30.4609 82.9792 30.8984 82.5938C31.3411 82.2083 31.5625 81.6927 31.5625 81.0469C31.5625 80.3438 31.3516 79.8047 30.9297 79.4297C30.513 79.0547 29.9089 78.8646 29.1172 78.8594H26.8203V83.1719ZM34.5703 84.6953C34.5703 83.8672 34.7318 83.1224 35.0547 82.4609C35.3828 81.7995 35.8359 81.2891 36.4141 80.9297C36.9974 80.5703 37.6615 80.3906 38.4062 80.3906C39.5573 80.3906 40.487 80.7891 41.1953 81.5859C41.9089 82.3828 42.2656 83.4427 42.2656 84.7656V84.8672C42.2656 85.6901 42.1068 86.4297 41.7891 87.0859C41.4766 87.737 41.026 88.2448 40.4375 88.6094C39.8542 88.974 39.1823 89.1562 38.4219 89.1562C37.276 89.1562 36.3464 88.7578 35.6328 87.9609C34.9245 87.1641 34.5703 86.1094 34.5703 84.7969V84.6953ZM36.0234 84.8672C36.0234 85.8047 36.2396 86.5573 36.6719 87.125C37.1094 87.6927 37.6927 87.9766 38.4219 87.9766C39.1562 87.9766 39.7396 87.6901 40.1719 87.1172C40.6042 86.5391 40.8203 85.7318 40.8203 84.6953C40.8203 83.7682 40.599 83.0182 40.1562 82.4453C39.7188 81.8672 39.1354 81.5781 38.4062 81.5781C37.6927 81.5781 37.1172 81.862 36.6797 82.4297C36.2422 82.9974 36.0234 83.8099 36.0234 84.8672ZM49 86.7578C49 86.3672 48.8516 86.0651 48.5547 85.8516C48.263 85.6328 47.75 85.4453 47.0156 85.2891C46.2865 85.1328 45.7057 84.9453 45.2734 84.7266C44.8464 84.5078 44.5286 84.2474 44.3203 83.9453C44.1172 83.6432 44.0156 83.2839 44.0156 82.8672C44.0156 82.1745 44.3073 81.5885 44.8906 81.1094C45.4792 80.6302 46.2292 80.3906 47.1406 80.3906C48.099 80.3906 48.875 80.638 49.4688 81.1328C50.0677 81.6276 50.3672 82.2604 50.3672 83.0312H48.9141C48.9141 82.6354 48.7448 82.2943 48.4062 82.0078C48.0729 81.7214 47.651 81.5781 47.1406 81.5781C46.6146 81.5781 46.2031 81.6927 45.9062 81.9219C45.6094 82.151 45.4609 82.4505 45.4609 82.8203C45.4609 83.1693 45.599 83.4323 45.875 83.6094C46.151 83.7865 46.6484 83.9557 47.3672 84.1172C48.0911 84.2786 48.6771 84.4714 49.125 84.6953C49.5729 84.9193 49.9036 85.1901 50.1172 85.5078C50.3359 85.8203 50.4453 86.2031 50.4453 86.6562C50.4453 87.4115 50.1432 88.0182 49.5391 88.4766C48.9349 88.9297 48.151 89.1562 47.1875 89.1562C46.5104 89.1562 45.9115 89.0365 45.3906 88.7969C44.8698 88.5573 44.4609 88.224 44.1641 87.7969C43.8724 87.3646 43.7266 86.8984 43.7266 86.3984H45.1719C45.1979 86.8828 45.3906 87.2682 45.75 87.5547C46.1146 87.8359 46.5938 87.9766 47.1875 87.9766C47.7344 87.9766 48.1719 87.8672 48.5 87.6484C48.8333 87.4245 49 87.1276 49 86.7578ZM57.5469 89C57.4635 88.8333 57.3958 88.5365 57.3438 88.1094C56.6719 88.8073 55.8698 89.1562 54.9375 89.1562C54.1042 89.1562 53.4193 88.9219 52.8828 88.4531C52.3516 87.9792 52.0859 87.3802 52.0859 86.6562C52.0859 85.776 52.4193 85.0938 53.0859 84.6094C53.7578 84.1198 54.7005 83.875 55.9141 83.875H57.3203V83.2109C57.3203 82.7057 57.1693 82.3047 56.8672 82.0078C56.5651 81.7057 56.1198 81.5547 55.5312 81.5547C55.0156 81.5547 54.5833 81.6849 54.2344 81.9453C53.8854 82.2057 53.7109 82.5208 53.7109 82.8906H52.2578C52.2578 82.4688 52.4062 82.0625 52.7031 81.6719C53.0052 81.276 53.4115 80.9635 53.9219 80.7344C54.4375 80.5052 55.0026 80.3906 55.6172 80.3906C56.5911 80.3906 57.3542 80.6354 57.9062 81.125C58.4583 81.6094 58.7448 82.2786 58.7656 83.1328V87.0234C58.7656 87.7995 58.8646 88.4167 59.0625 88.875V89H57.5469ZM55.1484 87.8984C55.6016 87.8984 56.0312 87.7812 56.4375 87.5469C56.8438 87.3125 57.138 87.0078 57.3203 86.6328V84.8984H56.1875C54.4167 84.8984 53.5312 85.4167 53.5312 86.4531C53.5312 86.9062 53.6823 87.2604 53.9844 87.5156C54.2865 87.7708 54.6745 87.8984 55.1484 87.8984ZM64.4219 87.9766C64.9375 87.9766 65.388 87.8203 65.7734 87.5078C66.1589 87.1953 66.3724 86.8047 66.4141 86.3359H67.7812C67.7552 86.8203 67.5885 87.2812 67.2812 87.7188C66.974 88.1562 66.5625 88.5052 66.0469 88.7656C65.5365 89.026 64.9948 89.1562 64.4219 89.1562C63.2708 89.1562 62.3542 88.7734 61.6719 88.0078C60.9948 87.237 60.6562 86.1849 60.6562 84.8516V84.6094C60.6562 83.7865 60.8073 83.0547 61.1094 82.4141C61.4115 81.7734 61.8438 81.276 62.4062 80.9219C62.974 80.5677 63.6432 80.3906 64.4141 80.3906C65.362 80.3906 66.1484 80.6745 66.7734 81.2422C67.4036 81.8099 67.7396 82.5469 67.7812 83.4531H66.4141C66.3724 82.9062 66.1641 82.4583 65.7891 82.1094C65.4193 81.7552 64.9609 81.5781 64.4141 81.5781C63.6797 81.5781 63.1094 81.8438 62.7031 82.375C62.3021 82.901 62.1016 83.6641 62.1016 84.6641V84.9375C62.1016 85.9115 62.3021 86.6615 62.7031 87.1875C63.1042 87.7135 63.6771 87.9766 64.4219 87.9766ZM72.9141 89.1562C71.7682 89.1562 70.8359 88.7812 70.1172 88.0312C69.3984 87.276 69.0391 86.2682 69.0391 85.0078V84.7422C69.0391 83.9036 69.1979 83.1562 69.5156 82.5C69.8385 81.8385 70.2865 81.3229 70.8594 80.9531C71.4375 80.5781 72.0625 80.3906 72.7344 80.3906C73.8333 80.3906 74.6875 80.7526 75.2969 81.4766C75.9062 82.2005 76.2109 83.237 76.2109 84.5859V85.1875H70.4844C70.5052 86.0208 70.7474 86.6953 71.2109 87.2109C71.6797 87.7214 72.2734 87.9766 72.9922 87.9766C73.5026 87.9766 73.9349 87.8724 74.2891 87.6641C74.6432 87.4557 74.9531 87.1797 75.2188 86.8359L76.1016 87.5234C75.3932 88.612 74.3307 89.1562 72.9141 89.1562ZM72.7344 81.5781C72.151 81.5781 71.6615 81.7917 71.2656 82.2188C70.8698 82.6406 70.625 83.2344 70.5312 84H74.7656V83.8906C74.724 83.1562 74.526 82.5885 74.1719 82.1875C73.8177 81.7812 73.3385 81.5781 72.7344 81.5781ZM83.1094 89C83.026 88.8333 82.9583 88.5365 82.9062 88.1094C82.2344 88.8073 81.4323 89.1562 80.5 89.1562C79.6667 89.1562 78.9818 88.9219 78.4453 88.4531C77.9141 87.9792 77.6484 87.3802 77.6484 86.6562C77.6484 85.776 77.9818 85.0938 78.6484 84.6094C79.3203 84.1198 80.263 83.875 81.4766 83.875H82.8828V83.2109C82.8828 82.7057 82.7318 82.3047 82.4297 82.0078C82.1276 81.7057 81.6823 81.5547 81.0938 81.5547C80.5781 81.5547 80.1458 81.6849 79.7969 81.9453C79.4479 82.2057 79.2734 82.5208 79.2734 82.8906H77.8203C77.8203 82.4688 77.9688 82.0625 78.2656 81.6719C78.5677 81.276 78.974 80.9635 79.4844 80.7344C80 80.5052 80.5651 80.3906 81.1797 80.3906C82.1536 80.3906 82.9167 80.6354 83.4688 81.125C84.0208 81.6094 84.3073 82.2786 84.3281 83.1328V87.0234C84.3281 87.7995 84.4271 88.4167 84.625 88.875V89H83.1094ZM80.7109 87.8984C81.1641 87.8984 81.5938 87.7812 82 87.5469C82.4062 87.3125 82.7005 87.0078 82.8828 86.6328V84.8984H81.75C79.9792 84.8984 79.0938 85.4167 79.0938 86.4531C79.0938 86.9062 79.2448 87.2604 79.5469 87.5156C79.849 87.7708 80.237 87.8984 80.7109 87.8984Z" fill="#071330"/>
<path d="M36 21C36 26.0768 36 29.4232 36 34.5" stroke="white"/>
<line x1="29" y1="27.5" x2="43" y2="27.5" stroke="white"/>
<defs>
<filter id="filter0_d_0_192" x="0" y="4.5714" width="72" height="72" filterUnits="userSpaceOnUse" color-interpolation-filters="sRGB">
<feFlood flood-opacity="0" result="BackgroundImageFix"/>
<feColorMatrix in="SourceAlpha" type="matrix" values="0 0 0 0 0 0 0 0 0 0 0 0 0 0 0 0 0 0 127 0" result="hardAlpha"/>
<feOffset dy="12.5714"/>
<feGaussianBlur stdDeviation="12"/>
<feColorMatrix type="matrix" values="0 0 0 0 0.964706 0 0 0 0 0.517647 0 0 0 0 0.368627 0 0 0 0.2 0"/>
<feBlend mode="normal" in2="BackgroundImageFix" result="effect1_dropShadow_0_192"/>
<feBlend mode="normal" in="SourceGraphic" in2="effect1_dropShadow_0_192" result="shape"/>
</filter>
</defs>
</svg>
