<svg width="169" height="104" viewBox="0 0 169 104" fill="none" xmlns="http://www.w3.org/2000/svg">
<path d="M11 12C11 5.37259 16.3726 0 23 0H157C163.627 0 169 5.37258 169 12V92C169 98.6274 163.627 104 157 104H23C16.3726 104 11 98.6274 11 92V12Z" fill="#EF9CD0" fill-opacity="0.1"/>
<g filter="url(#filter0_d_0_185)">
<rect x="24" y="16" width="24" height="24" rx="12" fill="#EF9CD0"/>
</g>
<path d="M25.2378 89V78.3359H28.248C29.1758 78.3359 29.9961 78.541 30.709 78.9512C31.4219 79.3613 31.9712 79.9448 32.3569 80.7017C32.7476 81.4585 32.9453 82.3276 32.9502 83.3091V83.9902C32.9502 84.9961 32.7549 85.8774 32.3643 86.6343C31.9785 87.3911 31.4243 87.9722 30.7017 88.3774C29.9839 88.7827 29.1465 88.9902 28.1895 89H25.2378ZM26.644 79.4932V87.8501H28.1235C29.2075 87.8501 30.0498 87.5132 30.6504 86.8394C31.2559 86.1655 31.5586 85.2061 31.5586 83.9609V83.3384C31.5586 82.1274 31.2729 81.1875 30.7017 80.5186C30.1353 79.8447 29.3296 79.5029 28.2847 79.4932H26.644ZM38.6997 82.291C38.4946 82.2568 38.2725 82.2397 38.0332 82.2397C37.1445 82.2397 36.5415 82.6182 36.2241 83.375V89H34.8691V81.0752H36.1875L36.2095 81.9907C36.6538 81.2827 37.2837 80.9287 38.0991 80.9287C38.3628 80.9287 38.563 80.9629 38.6997 81.0312V82.291ZM42.6768 87.0151L44.5225 81.0752H45.9727L42.7866 90.2231C42.2935 91.5415 41.5098 92.2007 40.4355 92.2007L40.1792 92.1787L39.6738 92.0835V90.9849L40.04 91.0142C40.499 91.0142 40.8555 90.9214 41.1094 90.7358C41.3682 90.5503 41.5806 90.2109 41.7466 89.7178L42.0469 88.9121L39.2197 81.0752H40.6992L42.6768 87.0151ZM54.2637 84.2466C53.0576 83.8999 52.1787 83.4751 51.627 82.9722C51.0801 82.4644 50.8066 81.8394 50.8066 81.0972C50.8066 80.2573 51.1411 79.564 51.8101 79.0171C52.4839 78.4653 53.3579 78.1895 54.4321 78.1895C55.1646 78.1895 55.8164 78.3311 56.3877 78.6143C56.9639 78.8975 57.4082 79.2881 57.7207 79.7861C58.0381 80.2842 58.1968 80.8286 58.1968 81.4194H56.7832C56.7832 80.7749 56.5781 80.2695 56.168 79.9033C55.7578 79.5322 55.1792 79.3467 54.4321 79.3467C53.7388 79.3467 53.1968 79.5005 52.8062 79.8081C52.4204 80.1108 52.2275 80.5332 52.2275 81.0752C52.2275 81.5098 52.4106 81.8784 52.7769 82.1812C53.1479 82.479 53.7754 82.7524 54.6592 83.0015C55.5479 83.2505 56.2412 83.5264 56.7393 83.8291C57.2422 84.127 57.6133 84.4761 57.8525 84.8765C58.0967 85.2769 58.2188 85.748 58.2188 86.29C58.2188 87.1543 57.8818 87.8477 57.208 88.3701C56.5342 88.8877 55.6333 89.1465 54.5054 89.1465C53.7729 89.1465 53.0894 89.0073 52.4546 88.729C51.8198 88.4458 51.3291 88.0601 50.9824 87.5718C50.6406 87.0835 50.4697 86.5293 50.4697 85.9092H51.8833C51.8833 86.5537 52.1201 87.064 52.5938 87.4399C53.0723 87.811 53.7095 87.9966 54.5054 87.9966C55.2476 87.9966 55.8164 87.8452 56.2119 87.5425C56.6074 87.2397 56.8052 86.8271 56.8052 86.3047C56.8052 85.7822 56.6221 85.3794 56.2559 85.0962C55.8896 84.8081 55.2256 84.5249 54.2637 84.2466ZM62.0273 85.3306L61.1777 86.2168V89H59.8228V77.75H61.1777V84.5542L61.9028 83.6826L64.3711 81.0752H66.019L62.9355 84.3857L66.3779 89H64.7886L62.0273 85.3306ZM68.8901 89H67.5352V81.0752H68.8901V89ZM67.4253 78.9731C67.4253 78.7534 67.4912 78.5679 67.623 78.4165C67.7598 78.2651 67.96 78.1895 68.2236 78.1895C68.4873 78.1895 68.6875 78.2651 68.8242 78.4165C68.9609 78.5679 69.0293 78.7534 69.0293 78.9731C69.0293 79.1929 68.9609 79.376 68.8242 79.5225C68.6875 79.6689 68.4873 79.7422 68.2236 79.7422C67.96 79.7422 67.7598 79.6689 67.623 79.5225C67.4912 79.376 67.4253 79.1929 67.4253 78.9731ZM72.3472 81.0752L72.3911 82.0713C72.9966 81.3096 73.7876 80.9287 74.7642 80.9287C76.439 80.9287 77.2837 81.8735 77.2983 83.7632V89H75.9434V83.7559C75.9385 83.1846 75.8066 82.7622 75.5479 82.4888C75.2939 82.2153 74.896 82.0786 74.354 82.0786C73.9146 82.0786 73.5288 82.1958 73.1968 82.4302C72.8647 82.6646 72.606 82.9722 72.4204 83.353V89H71.0654V81.0752H72.3472Z" fill="#071330"/>
<path d="M36 21C36 26.0768 36 29.4232 36 34.5" stroke="white"/>
<line x1="29" y1="27.5" x2="43" y2="27.5" stroke="white"/>
<defs>
<filter id="filter0_d_0_185" x="0" y="4.5714" width="72" height="72" filterUnits="userSpaceOnUse" color-interpolation-filters="sRGB">
<feFlood flood-opacity="0" result="BackgroundImageFix"/>
<feColorMatrix in="SourceAlpha" type="matrix" values="0 0 0 0 0 0 0 0 0 0 0 0 0 0 0 0 0 0 127 0" result="hardAlpha"/>
<feOffset dy="12.5714"/>
<feGaussianBlur stdDeviation="12"/>
<feColorMatrix type="matrix" values="0 0 0 0 0.937255 0 0 0 0 0.611765 0 0 0 0 0.815686 0 0 0 0.2 0"/>
<feBlend mode="normal" in2="BackgroundImageFix" result="effect1_dropShadow_0_185"/>
<feBlend mode="normal" in="SourceGraphic" in2="effect1_dropShadow_0_185" result="shape"/>
</filter>
</defs>
</svg>
