<svg width="169" height="104" viewBox="0 0 169 104" fill="none" xmlns="http://www.w3.org/2000/svg">
<path d="M11 12C11 5.37259 16.3726 0 23 0H157C163.627 0 169 5.37258 169 12V92C169 98.6274 163.627 104 157 104H23C16.3726 104 11 98.6274 11 92V12Z" fill="#7FDDF0" fill-opacity="0.1"/>
<g filter="url(#filter0_d_0_164)">
<rect x="24" y="16" width="24" height="24" rx="12" fill="#7FDDF0"/>
</g>
<path d="M31.6016 86.0312H26.8359L25.7656 89H24.2188L28.5625 77.625H29.875L34.2266 89H32.6875L31.6016 86.0312ZM27.2891 84.7969H31.1562L29.2188 79.4766L27.2891 84.7969ZM38.9219 87.9766C39.4375 87.9766 39.888 87.8203 40.2734 87.5078C40.6589 87.1953 40.8724 86.8047 40.9141 86.3359H42.2812C42.2552 86.8203 42.0885 87.2812 41.7812 87.7188C41.474 88.1562 41.0625 88.5052 40.5469 88.7656C40.0365 89.026 39.4948 89.1562 38.9219 89.1562C37.7708 89.1562 36.8542 88.7734 36.1719 88.0078C35.4948 87.237 35.1562 86.1849 35.1562 84.8516V84.6094C35.1562 83.7865 35.3073 83.0547 35.6094 82.4141C35.9115 81.7734 36.3438 81.276 36.9062 80.9219C37.474 80.5677 38.1432 80.3906 38.9141 80.3906C39.862 80.3906 40.6484 80.6745 41.2734 81.2422C41.9036 81.8099 42.2396 82.5469 42.2812 83.4531H40.9141C40.8724 82.9062 40.6641 82.4583 40.2891 82.1094C39.9193 81.7552 39.4609 81.5781 38.9141 81.5781C38.1797 81.5781 37.6094 81.8438 37.2031 82.375C36.8021 82.901 36.6016 83.6641 36.6016 84.6641V84.9375C36.6016 85.9115 36.8021 86.6615 37.2031 87.1875C37.6042 87.7135 38.1771 87.9766 38.9219 87.9766ZM45.2734 80.5469L45.3203 81.6094C45.9661 80.7969 46.8099 80.3906 47.8516 80.3906C49.638 80.3906 50.5391 81.3984 50.5547 83.4141V89H49.1094V83.4062C49.1042 82.7969 48.9635 82.3464 48.6875 82.0547C48.4167 81.763 47.9922 81.6172 47.4141 81.6172C46.9453 81.6172 46.5339 81.7422 46.1797 81.9922C45.8255 82.2422 45.5495 82.5703 45.3516 82.9766V89H43.9062V80.5469H45.2734ZM56.2422 89.1562C55.0964 89.1562 54.1641 88.7812 53.4453 88.0312C52.7266 87.276 52.3672 86.2682 52.3672 85.0078V84.7422C52.3672 83.9036 52.526 83.1562 52.8438 82.5C53.1667 81.8385 53.6146 81.3229 54.1875 80.9531C54.7656 80.5781 55.3906 80.3906 56.0625 80.3906C57.1615 80.3906 58.0156 80.7526 58.625 81.4766C59.2344 82.2005 59.5391 83.237 59.5391 84.5859V85.1875H53.8125C53.8333 86.0208 54.0755 86.6953 54.5391 87.2109C55.0078 87.7214 55.6016 87.9766 56.3203 87.9766C56.8307 87.9766 57.263 87.8724 57.6172 87.6641C57.9714 87.4557 58.2812 87.1797 58.5469 86.8359L59.4297 87.5234C58.7214 88.612 57.6589 89.1562 56.2422 89.1562ZM56.0625 81.5781C55.4792 81.5781 54.9896 81.7917 54.5938 82.2188C54.1979 82.6406 53.9531 83.2344 53.8594 84H58.0938V83.8906C58.0521 83.1562 57.8542 82.5885 57.5 82.1875C57.1458 81.7812 56.6667 81.5781 56.0625 81.5781Z" fill="#071330"/>
<path d="M36 21C36 26.0768 36 29.4232 36 34.5" stroke="white"/>
<line x1="29" y1="27.5" x2="43" y2="27.5" stroke="white"/>
<defs>
<filter id="filter0_d_0_164" x="0" y="4.5714" width="72" height="72" filterUnits="userSpaceOnUse" color-interpolation-filters="sRGB">
<feFlood flood-opacity="0" result="BackgroundImageFix"/>
<feColorMatrix in="SourceAlpha" type="matrix" values="0 0 0 0 0 0 0 0 0 0 0 0 0 0 0 0 0 0 127 0" result="hardAlpha"/>
<feOffset dy="12.5714"/>
<feGaussianBlur stdDeviation="12"/>
<feColorMatrix type="matrix" values="0 0 0 0 0.498039 0 0 0 0 0.866667 0 0 0 0 0.941176 0 0 0 0.2 0"/>
<feBlend mode="normal" in2="BackgroundImageFix" result="effect1_dropShadow_0_164"/>
<feBlend mode="normal" in="SourceGraphic" in2="effect1_dropShadow_0_164" result="shape"/>
</filter>
</defs>
</svg>
