<svg width="169" height="104" viewBox="0 0 169 104" fill="none" xmlns="http://www.w3.org/2000/svg">
<path d="M11 12C11 5.37259 16.3726 0 23 0H157C163.627 0 169 5.37258 169 12V92C169 98.6274 163.627 104 157 104H23C16.3726 104 11 98.6274 11 92V12Z" fill="#5FAEEC" fill-opacity="0.1"/>
<g filter="url(#filter0_d_0_171)">
<rect x="24" y="16" width="24" height="24" rx="12" fill="#5FAEEC"/>
</g>
<path d="M26.4678 84.1035V88H25.1553V78.0469H28.8262C29.9154 78.0469 30.7676 78.3249 31.3828 78.8809C32.0026 79.4368 32.3125 80.1729 32.3125 81.0889C32.3125 82.055 32.0094 82.8001 31.4033 83.3242C30.8018 83.8438 29.9382 84.1035 28.8125 84.1035H26.4678ZM26.4678 83.0303H28.8262C29.528 83.0303 30.0658 82.8662 30.4395 82.5381C30.8132 82.2054 31 81.7269 31 81.1025C31 80.5101 30.8132 80.0361 30.4395 79.6807C30.0658 79.3252 29.5531 79.1406 28.9014 79.127H26.4678V83.0303ZM38.0957 86.0381C38.0957 85.6963 37.9658 85.432 37.7061 85.2451C37.4508 85.0537 37.002 84.8896 36.3594 84.7529C35.7214 84.6162 35.2132 84.4521 34.835 84.2607C34.4613 84.0693 34.1833 83.8415 34.001 83.5771C33.8232 83.3128 33.7344 82.9984 33.7344 82.6338C33.7344 82.0277 33.9896 81.515 34.5 81.0957C35.015 80.6764 35.6712 80.4668 36.4688 80.4668C37.3073 80.4668 37.9863 80.6833 38.5059 81.1162C39.0299 81.5492 39.292 82.1029 39.292 82.7773H38.0205C38.0205 82.431 37.8724 82.1325 37.5762 81.8818C37.2845 81.6312 36.9154 81.5059 36.4688 81.5059C36.0085 81.5059 35.6484 81.6061 35.3887 81.8066C35.1289 82.0072 34.999 82.2692 34.999 82.5928C34.999 82.8981 35.1198 83.1283 35.3613 83.2832C35.6029 83.4382 36.0381 83.5863 36.667 83.7275C37.3005 83.8688 37.8132 84.0374 38.2051 84.2334C38.597 84.4294 38.8864 84.6663 39.0732 84.9443C39.2646 85.2178 39.3604 85.5527 39.3604 85.9492C39.3604 86.61 39.096 87.141 38.5674 87.542C38.0387 87.9385 37.3529 88.1367 36.5098 88.1367C35.9173 88.1367 35.3932 88.0319 34.9375 87.8223C34.4818 87.6126 34.124 87.321 33.8643 86.9473C33.609 86.569 33.4814 86.1611 33.4814 85.7236H34.7461C34.7689 86.1475 34.9375 86.4847 35.252 86.7354C35.571 86.9814 35.9902 87.1045 36.5098 87.1045C36.9883 87.1045 37.3711 87.0088 37.6582 86.8174C37.9499 86.6214 38.0957 86.3617 38.0957 86.0381ZM40.6729 84.2334C40.6729 83.5088 40.8141 82.8571 41.0967 82.2783C41.3838 81.6995 41.7803 81.2529 42.2861 80.9385C42.7965 80.624 43.3776 80.4668 44.0293 80.4668C45.0365 80.4668 45.8499 80.8154 46.4697 81.5127C47.0941 82.21 47.4062 83.1374 47.4062 84.2949V84.3838C47.4062 85.1038 47.2673 85.751 46.9893 86.3252C46.7158 86.8949 46.3216 87.3392 45.8066 87.6582C45.2962 87.9772 44.7083 88.1367 44.043 88.1367C43.0404 88.1367 42.2269 87.7881 41.6025 87.0908C40.9827 86.3936 40.6729 85.4707 40.6729 84.3223V84.2334ZM41.9443 84.3838C41.9443 85.2041 42.1335 85.8626 42.5117 86.3594C42.8945 86.8561 43.4049 87.1045 44.043 87.1045C44.6855 87.1045 45.196 86.8538 45.5742 86.3525C45.9525 85.8467 46.1416 85.1403 46.1416 84.2334C46.1416 83.4222 45.9479 82.766 45.5605 82.2646C45.1777 81.7588 44.6673 81.5059 44.0293 81.5059C43.4049 81.5059 42.9014 81.7542 42.5186 82.251C42.1357 82.7477 41.9443 83.4587 41.9443 84.3838ZM52.5674 81.7383C52.376 81.7064 52.1686 81.6904 51.9453 81.6904C51.1159 81.6904 50.5531 82.0436 50.2568 82.75V88H48.9922V80.6035H50.2227L50.2432 81.458C50.6579 80.7972 51.2458 80.4668 52.0068 80.4668C52.2529 80.4668 52.4398 80.4987 52.5674 80.5625V81.7383ZM55.1104 88H53.8457V80.6035H55.1104V88ZM53.7432 78.6416C53.7432 78.4365 53.8047 78.2633 53.9277 78.1221C54.0553 77.9808 54.2422 77.9102 54.4883 77.9102C54.7344 77.9102 54.9212 77.9808 55.0488 78.1221C55.1764 78.2633 55.2402 78.4365 55.2402 78.6416C55.2402 78.8467 55.1764 79.0176 55.0488 79.1543C54.9212 79.291 54.7344 79.3594 54.4883 79.3594C54.2422 79.3594 54.0553 79.291 53.9277 79.1543C53.8047 79.0176 53.7432 78.8467 53.7432 78.6416ZM61.707 88C61.6341 87.8542 61.5749 87.5944 61.5293 87.2207C60.9414 87.8314 60.2396 88.1367 59.4238 88.1367C58.6947 88.1367 58.0954 87.9316 57.626 87.5215C57.1611 87.1068 56.9287 86.5827 56.9287 85.9492C56.9287 85.179 57.2204 84.582 57.8037 84.1582C58.3916 83.7298 59.2165 83.5156 60.2783 83.5156H61.5088V82.9346C61.5088 82.4925 61.3766 82.1416 61.1123 81.8818C60.848 81.6175 60.4583 81.4854 59.9434 81.4854C59.4922 81.4854 59.1139 81.5993 58.8086 81.8271C58.5033 82.055 58.3506 82.3307 58.3506 82.6543H57.0791C57.0791 82.2852 57.209 81.9297 57.4688 81.5879C57.7331 81.2415 58.0885 80.9681 58.5352 80.7676C58.9863 80.5671 59.4808 80.4668 60.0186 80.4668C60.8708 80.4668 61.5384 80.681 62.0215 81.1094C62.5046 81.5332 62.7552 82.1188 62.7734 82.8662V86.2705C62.7734 86.9495 62.86 87.4896 63.0332 87.8906V88H61.707ZM59.6084 87.0361C60.0049 87.0361 60.3809 86.9336 60.7363 86.7285C61.0918 86.5234 61.3493 86.2568 61.5088 85.9287V84.4111H60.5176C58.9681 84.4111 58.1934 84.8646 58.1934 85.7715C58.1934 86.168 58.3255 86.4779 58.5898 86.7012C58.8542 86.9245 59.1937 87.0361 59.6084 87.0361ZM69.0625 86.0381C69.0625 85.6963 68.9326 85.432 68.6729 85.2451C68.4176 85.0537 67.9688 84.8896 67.3262 84.7529C66.6882 84.6162 66.18 84.4521 65.8018 84.2607C65.4281 84.0693 65.1501 83.8415 64.9678 83.5771C64.79 83.3128 64.7012 82.9984 64.7012 82.6338C64.7012 82.0277 64.9564 81.515 65.4668 81.0957C65.9818 80.6764 66.638 80.4668 67.4355 80.4668C68.2741 80.4668 68.9531 80.6833 69.4727 81.1162C69.9967 81.5492 70.2588 82.1029 70.2588 82.7773H68.9873C68.9873 82.431 68.8392 82.1325 68.543 81.8818C68.2513 81.6312 67.8822 81.5059 67.4355 81.5059C66.9753 81.5059 66.6152 81.6061 66.3555 81.8066C66.0957 82.0072 65.9658 82.2692 65.9658 82.5928C65.9658 82.8981 66.0866 83.1283 66.3281 83.2832C66.5697 83.4382 67.0049 83.5863 67.6338 83.7275C68.2673 83.8688 68.7799 84.0374 69.1719 84.2334C69.5638 84.4294 69.8532 84.6663 70.04 84.9443C70.2314 85.2178 70.3271 85.5527 70.3271 85.9492C70.3271 86.61 70.0628 87.141 69.5342 87.542C69.0055 87.9385 68.3197 88.1367 67.4766 88.1367C66.8841 88.1367 66.36 88.0319 65.9043 87.8223C65.4486 87.6126 65.0908 87.321 64.8311 86.9473C64.5758 86.569 64.4482 86.1611 64.4482 85.7236H65.7129C65.7357 86.1475 65.9043 86.4847 66.2188 86.7354C66.5378 86.9814 66.957 87.1045 67.4766 87.1045C67.9551 87.1045 68.3379 87.0088 68.625 86.8174C68.9167 86.6214 69.0625 86.3617 69.0625 86.0381ZM73.3486 88H72.084V80.6035H73.3486V88ZM71.9814 78.6416C71.9814 78.4365 72.043 78.2633 72.166 78.1221C72.2936 77.9808 72.4805 77.9102 72.7266 77.9102C72.9727 77.9102 73.1595 77.9808 73.2871 78.1221C73.4147 78.2633 73.4785 78.4365 73.4785 78.6416C73.4785 78.8467 73.4147 79.0176 73.2871 79.1543C73.1595 79.291 72.9727 79.3594 72.7266 79.3594C72.4805 79.3594 72.2936 79.291 72.166 79.1543C72.043 79.0176 71.9814 78.8467 71.9814 78.6416ZM79.6855 86.0381C79.6855 85.6963 79.5557 85.432 79.2959 85.2451C79.0407 85.0537 78.5918 84.8896 77.9492 84.7529C77.3112 84.6162 76.8031 84.4521 76.4248 84.2607C76.0511 84.0693 75.7731 83.8415 75.5908 83.5771C75.4131 83.3128 75.3242 82.9984 75.3242 82.6338C75.3242 82.0277 75.5794 81.515 76.0898 81.0957C76.6048 80.6764 77.2611 80.4668 78.0586 80.4668C78.8971 80.4668 79.5762 80.6833 80.0957 81.1162C80.6198 81.5492 80.8818 82.1029 80.8818 82.7773H79.6104C79.6104 82.431 79.4622 82.1325 79.166 81.8818C78.8743 81.6312 78.5052 81.5059 78.0586 81.5059C77.5983 81.5059 77.2383 81.6061 76.9785 81.8066C76.7188 82.0072 76.5889 82.2692 76.5889 82.5928C76.5889 82.8981 76.7096 83.1283 76.9512 83.2832C77.1927 83.4382 77.6279 83.5863 78.2568 83.7275C78.8903 83.8688 79.403 84.0374 79.7949 84.2334C80.1868 84.4294 80.4762 84.6663 80.6631 84.9443C80.8545 85.2178 80.9502 85.5527 80.9502 85.9492C80.9502 86.61 80.6859 87.141 80.1572 87.542C79.6286 87.9385 78.9427 88.1367 78.0996 88.1367C77.5072 88.1367 76.9831 88.0319 76.5273 87.8223C76.0716 87.6126 75.7139 87.321 75.4541 86.9473C75.1989 86.569 75.0713 86.1611 75.0713 85.7236H76.3359C76.3587 86.1475 76.5273 86.4847 76.8418 86.7354C77.1608 86.9814 77.5801 87.1045 78.0996 87.1045C78.5781 87.1045 78.9609 87.0088 79.248 86.8174C79.5397 86.6214 79.6855 86.3617 79.6855 86.0381Z" fill="#071330"/>
<path d="M36 21C36 26.0768 36 29.4232 36 34.5" stroke="white"/>
<line x1="29" y1="27.5" x2="43" y2="27.5" stroke="white"/>
<defs>
<filter id="filter0_d_0_171" x="0" y="4.5714" width="72" height="72" filterUnits="userSpaceOnUse" color-interpolation-filters="sRGB">
<feFlood flood-opacity="0" result="BackgroundImageFix"/>
<feColorMatrix in="SourceAlpha" type="matrix" values="0 0 0 0 0 0 0 0 0 0 0 0 0 0 0 0 0 0 127 0" result="hardAlpha"/>
<feOffset dy="12.5714"/>
<feGaussianBlur stdDeviation="12"/>
<feColorMatrix type="matrix" values="0 0 0 0 0.372549 0 0 0 0 0.682353 0 0 0 0 0.92549 0 0 0 0.2 0"/>
<feBlend mode="normal" in2="BackgroundImageFix" result="effect1_dropShadow_0_171"/>
<feBlend mode="normal" in="SourceGraphic" in2="effect1_dropShadow_0_171" result="shape"/>
</filter>
</defs>
</svg>
