<svg width="169" height="104" viewBox="0 0 169 104" fill="none" xmlns="http://www.w3.org/2000/svg">
<path d="M11 12C11 5.37259 16.3726 0 23 0H157C163.627 0 169 5.37258 169 12V92C169 98.6274 163.627 104 157 104H23C16.3726 104 11 98.6274 11 92V12Z" fill="#7BCFA6" fill-opacity="0.1"/>
<g filter="url(#filter0_d_0_220)">
<rect x="24" y="16" width="24" height="24" rx="12" fill="#7BCFA6"/>
</g>
<path d="M28.6719 83.9297C27.3854 83.5599 26.4479 83.1068 25.8594 82.5703C25.276 82.0286 24.9844 81.362 24.9844 80.5703C24.9844 79.6745 25.3411 78.9349 26.0547 78.3516C26.7734 77.763 27.7057 77.4688 28.8516 77.4688C29.6328 77.4688 30.3281 77.6198 30.9375 77.9219C31.5521 78.224 32.026 78.6406 32.3594 79.1719C32.6979 79.7031 32.8672 80.2839 32.8672 80.9141H31.3594C31.3594 80.2266 31.1406 79.6875 30.7031 79.2969C30.2656 78.901 29.6484 78.7031 28.8516 78.7031C28.112 78.7031 27.5339 78.8672 27.1172 79.1953C26.7057 79.5182 26.5 79.9688 26.5 80.5469C26.5 81.0104 26.6953 81.4036 27.0859 81.7266C27.4818 82.0443 28.151 82.3359 29.0938 82.6016C30.0417 82.8672 30.7812 83.1615 31.3125 83.4844C31.849 83.8021 32.2448 84.1745 32.5 84.6016C32.7604 85.0286 32.8906 85.5312 32.8906 86.1094C32.8906 87.0312 32.5312 87.7708 31.8125 88.3281C31.0938 88.8802 30.1328 89.1562 28.9297 89.1562C28.1484 89.1562 27.4193 89.0078 26.7422 88.7109C26.0651 88.4089 25.5417 87.9974 25.1719 87.4766C24.8073 86.9557 24.625 86.3646 24.625 85.7031H26.1328C26.1328 86.3906 26.3854 86.9349 26.8906 87.3359C27.401 87.7318 28.0807 87.9297 28.9297 87.9297C29.7214 87.9297 30.3281 87.7682 30.75 87.4453C31.1719 87.1224 31.3828 86.6823 31.3828 86.125C31.3828 85.5677 31.1875 85.138 30.7969 84.8359C30.4062 84.5286 29.6979 84.2266 28.6719 83.9297ZM41.7344 84.8672C41.7344 86.1536 41.4401 87.1901 40.8516 87.9766C40.263 88.763 39.4661 89.1562 38.4609 89.1562C37.4349 89.1562 36.6276 88.8307 36.0391 88.1797V92.25H34.5938V80.5469H35.9141L35.9844 81.4844C36.5729 80.7552 37.3906 80.3906 38.4375 80.3906C39.4531 80.3906 40.2552 80.7734 40.8438 81.5391C41.4375 82.3047 41.7344 83.3698 41.7344 84.7344V84.8672ZM40.2891 84.7031C40.2891 83.75 40.0859 82.9974 39.6797 82.4453C39.2734 81.8932 38.7161 81.6172 38.0078 81.6172C37.1328 81.6172 36.4766 82.0052 36.0391 82.7812V86.8203C36.4714 87.5911 37.1328 87.9766 38.0234 87.9766C38.7161 87.9766 39.2656 87.7031 39.6719 87.1562C40.0833 86.6042 40.2891 85.7865 40.2891 84.7031ZM45.1484 89H43.7031V80.5469H45.1484V89ZM43.5859 78.3047C43.5859 78.0703 43.6562 77.8724 43.7969 77.7109C43.9427 77.5495 44.1562 77.4688 44.4375 77.4688C44.7188 77.4688 44.9323 77.5495 45.0781 77.7109C45.224 77.8724 45.2969 78.0703 45.2969 78.3047C45.2969 78.5391 45.224 78.7344 45.0781 78.8906C44.9323 79.0469 44.7188 79.125 44.4375 79.125C44.1562 79.125 43.9427 79.0469 43.7969 78.8906C43.6562 78.7344 43.5859 78.5391 43.5859 78.3047ZM47.1172 84.7031C47.1172 83.4062 47.4245 82.3646 48.0391 81.5781C48.6536 80.7865 49.4583 80.3906 50.4531 80.3906C51.4427 80.3906 52.2266 80.7292 52.8047 81.4062V77H54.25V89H52.9219L52.8516 88.0938C52.2734 88.8021 51.4688 89.1562 50.4375 89.1562C49.4583 89.1562 48.6589 88.7552 48.0391 87.9531C47.4245 87.151 47.1172 86.1042 47.1172 84.8125V84.7031ZM48.5625 84.8672C48.5625 85.8255 48.7604 86.5755 49.1562 87.1172C49.5521 87.6589 50.099 87.9297 50.7969 87.9297C51.7135 87.9297 52.3828 87.5182 52.8047 86.6953V82.8125C52.3724 82.0156 51.7083 81.6172 50.8125 81.6172C50.1042 81.6172 49.5521 81.8906 49.1562 82.4375C48.7604 82.9844 48.5625 83.7943 48.5625 84.8672ZM60.0078 89.1562C58.862 89.1562 57.9297 88.7812 57.2109 88.0312C56.4922 87.276 56.1328 86.2682 56.1328 85.0078V84.7422C56.1328 83.9036 56.2917 83.1562 56.6094 82.5C56.9323 81.8385 57.3802 81.3229 57.9531 80.9531C58.5312 80.5781 59.1562 80.3906 59.8281 80.3906C60.9271 80.3906 61.7812 80.7526 62.3906 81.4766C63 82.2005 63.3047 83.237 63.3047 84.5859V85.1875H57.5781C57.599 86.0208 57.8411 86.6953 58.3047 87.2109C58.7734 87.7214 59.3672 87.9766 60.0859 87.9766C60.5964 87.9766 61.0286 87.8724 61.3828 87.6641C61.737 87.4557 62.0469 87.1797 62.3125 86.8359L63.1953 87.5234C62.487 88.612 61.4245 89.1562 60.0078 89.1562ZM59.8281 81.5781C59.2448 81.5781 58.7552 81.7917 58.3594 82.2188C57.9635 82.6406 57.7188 83.2344 57.625 84H61.8594V83.8906C61.8177 83.1562 61.6198 82.5885 61.2656 82.1875C60.9115 81.7812 60.4323 81.5781 59.8281 81.5781ZM69.0703 81.8438C68.8516 81.8073 68.6146 81.7891 68.3594 81.7891C67.4115 81.7891 66.7682 82.1927 66.4297 83V89H64.9844V80.5469H66.3906L66.4141 81.5234C66.888 80.7682 67.5599 80.3906 68.4297 80.3906C68.7109 80.3906 68.9245 80.4271 69.0703 80.5V81.8438ZM78.3672 87.0078L81.6172 77.625H83.2578L79.0391 89H77.7109L73.5 77.625H75.1328L78.3672 87.0078ZM87.7266 89.1562C86.5807 89.1562 85.6484 88.7812 84.9297 88.0312C84.2109 87.276 83.8516 86.2682 83.8516 85.0078V84.7422C83.8516 83.9036 84.0104 83.1562 84.3281 82.5C84.651 81.8385 85.099 81.3229 85.6719 80.9531C86.25 80.5781 86.875 80.3906 87.5469 80.3906C88.6458 80.3906 89.5 80.7526 90.1094 81.4766C90.7188 82.2005 91.0234 83.237 91.0234 84.5859V85.1875H85.2969C85.3177 86.0208 85.5599 86.6953 86.0234 87.2109C86.4922 87.7214 87.0859 87.9766 87.8047 87.9766C88.3151 87.9766 88.7474 87.8724 89.1016 87.6641C89.4557 87.4557 89.7656 87.1797 90.0312 86.8359L90.9141 87.5234C90.2057 88.612 89.1432 89.1562 87.7266 89.1562ZM87.5469 81.5781C86.9635 81.5781 86.474 81.7917 86.0781 82.2188C85.6823 82.6406 85.4375 83.2344 85.3438 84H89.5781V83.8906C89.5365 83.1562 89.3385 82.5885 88.9844 82.1875C88.6302 81.7812 88.151 81.5781 87.5469 81.5781ZM94.2734 89H92.8281V80.5469H94.2734V89ZM92.7109 78.3047C92.7109 78.0703 92.7812 77.8724 92.9219 77.7109C93.0677 77.5495 93.2812 77.4688 93.5625 77.4688C93.8438 77.4688 94.0573 77.5495 94.2031 77.7109C94.349 77.8724 94.4219 78.0703 94.4219 78.3047C94.4219 78.5391 94.349 78.7344 94.2031 78.8906C94.0573 79.0469 93.8438 79.125 93.5625 79.125C93.2812 79.125 93.0677 79.0469 92.9219 78.8906C92.7812 78.7344 92.7109 78.5391 92.7109 78.3047ZM97.9609 80.5469L98.0078 81.6094C98.6536 80.7969 99.4974 80.3906 100.539 80.3906C102.326 80.3906 103.227 81.3984 103.242 83.4141V89H101.797V83.4062C101.792 82.7969 101.651 82.3464 101.375 82.0547C101.104 81.763 100.68 81.6172 100.102 81.6172C99.6328 81.6172 99.2214 81.7422 98.8672 81.9922C98.513 82.2422 98.237 82.5703 98.0391 82.9766V89H96.5938V80.5469H97.9609ZM110.344 86.7578C110.344 86.3672 110.195 86.0651 109.898 85.8516C109.607 85.6328 109.094 85.4453 108.359 85.2891C107.63 85.1328 107.049 84.9453 106.617 84.7266C106.19 84.5078 105.872 84.2474 105.664 83.9453C105.461 83.6432 105.359 83.2839 105.359 82.8672C105.359 82.1745 105.651 81.5885 106.234 81.1094C106.823 80.6302 107.573 80.3906 108.484 80.3906C109.443 80.3906 110.219 80.638 110.812 81.1328C111.411 81.6276 111.711 82.2604 111.711 83.0312H110.258C110.258 82.6354 110.089 82.2943 109.75 82.0078C109.417 81.7214 108.995 81.5781 108.484 81.5781C107.958 81.5781 107.547 81.6927 107.25 81.9219C106.953 82.151 106.805 82.4505 106.805 82.8203C106.805 83.1693 106.943 83.4323 107.219 83.6094C107.495 83.7865 107.992 83.9557 108.711 84.1172C109.435 84.2786 110.021 84.4714 110.469 84.6953C110.917 84.9193 111.247 85.1901 111.461 85.5078C111.68 85.8203 111.789 86.2031 111.789 86.6562C111.789 87.4115 111.487 88.0182 110.883 88.4766C110.279 88.9297 109.495 89.1562 108.531 89.1562C107.854 89.1562 107.255 89.0365 106.734 88.7969C106.214 88.5573 105.805 88.224 105.508 87.7969C105.216 87.3646 105.07 86.8984 105.07 86.3984H106.516C106.542 86.8828 106.734 87.2682 107.094 87.5547C107.458 87.8359 107.938 87.9766 108.531 87.9766C109.078 87.9766 109.516 87.8672 109.844 87.6484C110.177 87.4245 110.344 87.1276 110.344 86.7578Z" fill="#071330"/>
<path d="M36 21C36 26.0768 36 29.4232 36 34.5" stroke="white"/>
<line x1="29" y1="27.5" x2="43" y2="27.5" stroke="white"/>
<defs>
<filter id="filter0_d_0_220" x="0" y="4.5714" width="72" height="72" filterUnits="userSpaceOnUse" color-interpolation-filters="sRGB">
<feFlood flood-opacity="0" result="BackgroundImageFix"/>
<feColorMatrix in="SourceAlpha" type="matrix" values="0 0 0 0 0 0 0 0 0 0 0 0 0 0 0 0 0 0 127 0" result="hardAlpha"/>
<feOffset dy="12.5714"/>
<feGaussianBlur stdDeviation="12"/>
<feColorMatrix type="matrix" values="0 0 0 0 0.482353 0 0 0 0 0.811765 0 0 0 0 0.65098 0 0 0 0.2 0"/>
<feBlend mode="normal" in2="BackgroundImageFix" result="effect1_dropShadow_0_220"/>
<feBlend mode="normal" in="SourceGraphic" in2="effect1_dropShadow_0_220" result="shape"/>
</filter>
</defs>
</svg>
