<svg width="169" height="104" viewBox="0 0 169 104" fill="none" xmlns="http://www.w3.org/2000/svg">
<path d="M11 12C11 5.37259 16.3726 0 23 0H157C163.627 0 169 5.37258 169 12V92C169 98.6274 163.627 104 157 104H23C16.3726 104 11 98.6274 11 92V12Z" fill="#FFDD57" fill-opacity="0.1"/>
<g filter="url(#filter0_d_0_206)">
<rect x="24" y="16" width="24" height="24" rx="12" fill="#FFDD57"/>
</g>
<path d="M28.2109 83.7109L26.8203 85.1562V89H25.3203V77.625H26.8203V83.25L31.875 77.625H33.6875L29.2109 82.6484L34.0391 89H32.2422L28.2109 83.7109ZM38.4297 89.1562C37.2839 89.1562 36.3516 88.7812 35.6328 88.0312C34.9141 87.276 34.5547 86.2682 34.5547 85.0078V84.7422C34.5547 83.9036 34.7135 83.1562 35.0312 82.5C35.3542 81.8385 35.8021 81.3229 36.375 80.9531C36.9531 80.5781 37.5781 80.3906 38.25 80.3906C39.349 80.3906 40.2031 80.7526 40.8125 81.4766C41.4219 82.2005 41.7266 83.237 41.7266 84.5859V85.1875H36C36.0208 86.0208 36.263 86.6953 36.7266 87.2109C37.1953 87.7214 37.7891 87.9766 38.5078 87.9766C39.0182 87.9766 39.4505 87.8724 39.8047 87.6641C40.1589 87.4557 40.4688 87.1797 40.7344 86.8359L41.6172 87.5234C40.9089 88.612 39.8464 89.1562 38.4297 89.1562ZM38.25 81.5781C37.6667 81.5781 37.1771 81.7917 36.7812 82.2188C36.3854 82.6406 36.1406 83.2344 36.0469 84H40.2812V83.8906C40.2396 83.1562 40.0417 82.5885 39.6875 82.1875C39.3333 81.7812 38.8542 81.5781 38.25 81.5781ZM47.4922 81.8438C47.2734 81.8073 47.0365 81.7891 46.7812 81.7891C45.8333 81.7891 45.1901 82.1927 44.8516 83V89H43.4062V80.5469H44.8125L44.8359 81.5234C45.3099 80.7682 45.9818 80.3906 46.8516 80.3906C47.1328 80.3906 47.3464 80.4271 47.4922 80.5V81.8438ZM53.7344 89C53.651 88.8333 53.5833 88.5365 53.5312 88.1094C52.8594 88.8073 52.0573 89.1562 51.125 89.1562C50.2917 89.1562 49.6068 88.9219 49.0703 88.4531C48.5391 87.9792 48.2734 87.3802 48.2734 86.6562C48.2734 85.776 48.6068 85.0938 49.2734 84.6094C49.9453 84.1198 50.888 83.875 52.1016 83.875H53.5078V83.2109C53.5078 82.7057 53.3568 82.3047 53.0547 82.0078C52.7526 81.7057 52.3073 81.5547 51.7188 81.5547C51.2031 81.5547 50.7708 81.6849 50.4219 81.9453C50.0729 82.2057 49.8984 82.5208 49.8984 82.8906H48.4453C48.4453 82.4688 48.5938 82.0625 48.8906 81.6719C49.1927 81.276 49.599 80.9635 50.1094 80.7344C50.625 80.5052 51.1901 80.3906 51.8047 80.3906C52.7786 80.3906 53.5417 80.6354 54.0938 81.125C54.6458 81.6094 54.9323 82.2786 54.9531 83.1328V87.0234C54.9531 87.7995 55.0521 88.4167 55.25 88.875V89H53.7344ZM51.3359 87.8984C51.7891 87.8984 52.2188 87.7812 52.625 87.5469C53.0312 87.3125 53.3255 87.0078 53.5078 86.6328V84.8984H52.375C50.6042 84.8984 49.7188 85.4167 49.7188 86.4531C49.7188 86.9062 49.8698 87.2604 50.1719 87.5156C50.474 87.7708 50.862 87.8984 51.3359 87.8984ZM59.1797 78.5V80.5469H60.7578V81.6641H59.1797V86.9062C59.1797 87.2448 59.25 87.5 59.3906 87.6719C59.5312 87.8385 59.7708 87.9219 60.1094 87.9219C60.276 87.9219 60.5052 87.8906 60.7969 87.8281V89C60.4167 89.1042 60.0469 89.1562 59.6875 89.1562C59.0417 89.1562 58.5547 88.9609 58.2266 88.5703C57.8984 88.1797 57.7344 87.625 57.7344 86.9062V81.6641H56.1953V80.5469H57.7344V78.5H59.1797ZM61.9141 84.6953C61.9141 83.8672 62.0755 83.1224 62.3984 82.4609C62.7266 81.7995 63.1797 81.2891 63.7578 80.9297C64.3411 80.5703 65.0052 80.3906 65.75 80.3906C66.901 80.3906 67.8307 80.7891 68.5391 81.5859C69.2526 82.3828 69.6094 83.4427 69.6094 84.7656V84.8672C69.6094 85.6901 69.4505 86.4297 69.1328 87.0859C68.8203 87.737 68.3698 88.2448 67.7812 88.6094C67.1979 88.974 66.526 89.1562 65.7656 89.1562C64.6198 89.1562 63.6901 88.7578 62.9766 87.9609C62.2682 87.1641 61.9141 86.1094 61.9141 84.7969V84.6953ZM63.3672 84.8672C63.3672 85.8047 63.5833 86.5573 64.0156 87.125C64.4531 87.6927 65.0365 87.9766 65.7656 87.9766C66.5 87.9766 67.0833 87.6901 67.5156 87.1172C67.9479 86.5391 68.1641 85.7318 68.1641 84.6953C68.1641 83.7682 67.9427 83.0182 67.5 82.4453C67.0625 81.8672 66.4792 81.5781 65.75 81.5781C65.0365 81.5781 64.4609 81.862 64.0234 82.4297C63.5859 82.9974 63.3672 83.8099 63.3672 84.8672ZM76.3438 86.7578C76.3438 86.3672 76.1953 86.0651 75.8984 85.8516C75.6068 85.6328 75.0938 85.4453 74.3594 85.2891C73.6302 85.1328 73.0495 84.9453 72.6172 84.7266C72.1901 84.5078 71.8724 84.2474 71.6641 83.9453C71.4609 83.6432 71.3594 83.2839 71.3594 82.8672C71.3594 82.1745 71.651 81.5885 72.2344 81.1094C72.8229 80.6302 73.5729 80.3906 74.4844 80.3906C75.4427 80.3906 76.2188 80.638 76.8125 81.1328C77.4115 81.6276 77.7109 82.2604 77.7109 83.0312H76.2578C76.2578 82.6354 76.0885 82.2943 75.75 82.0078C75.4167 81.7214 74.9948 81.5781 74.4844 81.5781C73.9583 81.5781 73.5469 81.6927 73.25 81.9219C72.9531 82.151 72.8047 82.4505 72.8047 82.8203C72.8047 83.1693 72.9427 83.4323 73.2188 83.6094C73.4948 83.7865 73.9922 83.9557 74.7109 84.1172C75.4349 84.2786 76.0208 84.4714 76.4688 84.6953C76.9167 84.9193 77.2474 85.1901 77.4609 85.5078C77.6797 85.8203 77.7891 86.2031 77.7891 86.6562C77.7891 87.4115 77.487 88.0182 76.8828 88.4766C76.2786 88.9297 75.4948 89.1562 74.5312 89.1562C73.8542 89.1562 73.2552 89.0365 72.7344 88.7969C72.2135 88.5573 71.8047 88.224 71.5078 87.7969C71.2161 87.3646 71.0703 86.8984 71.0703 86.3984H72.5156C72.5417 86.8828 72.7344 87.2682 73.0938 87.5547C73.4583 87.8359 73.9375 87.9766 74.5312 87.9766C75.0781 87.9766 75.5156 87.8672 75.8438 87.6484C76.1771 87.4245 76.3438 87.1276 76.3438 86.7578ZM81.2422 89H79.7969V80.5469H81.2422V89ZM79.6797 78.3047C79.6797 78.0703 79.75 77.8724 79.8906 77.7109C80.0365 77.5495 80.25 77.4688 80.5312 77.4688C80.8125 77.4688 81.026 77.5495 81.1719 77.7109C81.3177 77.8724 81.3906 78.0703 81.3906 78.3047C81.3906 78.5391 81.3177 78.7344 81.1719 78.8906C81.026 79.0469 80.8125 79.125 80.5312 79.125C80.25 79.125 80.0365 79.0469 79.8906 78.8906C79.75 78.7344 79.6797 78.5391 79.6797 78.3047ZM88.4844 86.7578C88.4844 86.3672 88.3359 86.0651 88.0391 85.8516C87.7474 85.6328 87.2344 85.4453 86.5 85.2891C85.7708 85.1328 85.1901 84.9453 84.7578 84.7266C84.3307 84.5078 84.013 84.2474 83.8047 83.9453C83.6016 83.6432 83.5 83.2839 83.5 82.8672C83.5 82.1745 83.7917 81.5885 84.375 81.1094C84.9635 80.6302 85.7135 80.3906 86.625 80.3906C87.5833 80.3906 88.3594 80.638 88.9531 81.1328C89.5521 81.6276 89.8516 82.2604 89.8516 83.0312H88.3984C88.3984 82.6354 88.2292 82.2943 87.8906 82.0078C87.5573 81.7214 87.1354 81.5781 86.625 81.5781C86.099 81.5781 85.6875 81.6927 85.3906 81.9219C85.0938 82.151 84.9453 82.4505 84.9453 82.8203C84.9453 83.1693 85.0833 83.4323 85.3594 83.6094C85.6354 83.7865 86.1328 83.9557 86.8516 84.1172C87.5755 84.2786 88.1615 84.4714 88.6094 84.6953C89.0573 84.9193 89.388 85.1901 89.6016 85.5078C89.8203 85.8203 89.9297 86.2031 89.9297 86.6562C89.9297 87.4115 89.6276 88.0182 89.0234 88.4766C88.4193 88.9297 87.6354 89.1562 86.6719 89.1562C85.9948 89.1562 85.3958 89.0365 84.875 88.7969C84.3542 88.5573 83.9453 88.224 83.6484 87.7969C83.3568 87.3646 83.2109 86.8984 83.2109 86.3984H84.6562C84.6823 86.8828 84.875 87.2682 85.2344 87.5547C85.599 87.8359 86.0781 87.9766 86.6719 87.9766C87.2188 87.9766 87.6562 87.8672 87.9844 87.6484C88.3177 87.4245 88.4844 87.1276 88.4844 86.7578Z" fill="#071330"/>
<path d="M36 21C36 26.0768 36 29.4232 36 34.5" stroke="white"/>
<line x1="29" y1="27.5" x2="43" y2="27.5" stroke="white"/>
<defs>
<filter id="filter0_d_0_206" x="0" y="4.5714" width="72" height="72" filterUnits="userSpaceOnUse" color-interpolation-filters="sRGB">
<feFlood flood-opacity="0" result="BackgroundImageFix"/>
<feColorMatrix in="SourceAlpha" type="matrix" values="0 0 0 0 0 0 0 0 0 0 0 0 0 0 0 0 0 0 127 0" result="hardAlpha"/>
<feOffset dy="12.5714"/>
<feGaussianBlur stdDeviation="12"/>
<feColorMatrix type="matrix" values="0 0 0 0 1 0 0 0 0 0.866667 0 0 0 0 0.341176 0 0 0 0.2 0"/>
<feBlend mode="normal" in2="BackgroundImageFix" result="effect1_dropShadow_0_206"/>
<feBlend mode="normal" in="SourceGraphic" in2="effect1_dropShadow_0_206" result="shape"/>
</filter>
</defs>
</svg>
