<svg width="169" height="104" viewBox="0 0 169 104" fill="none" xmlns="http://www.w3.org/2000/svg">
<path d="M11 12C11 5.37259 16.3726 0 23 0H157C163.627 0 169 5.37258 169 12V92C169 98.6274 163.627 104 157 104H23C16.3726 104 11 98.6274 11 92V12Z" fill="#9B78FD" fill-opacity="0.08"/>
<g filter="url(#filter0_d_0_178)">
<rect x="24" y="16" width="24" height="24" rx="12" fill="#9B78FD"/>
</g>
<path d="M31.75 83.7422H26.8203V87.7734H32.5469V89H25.3203V77.625H32.4688V78.8594H26.8203V82.5156H31.75V83.7422ZM37.4219 87.9766C37.9375 87.9766 38.388 87.8203 38.7734 87.5078C39.1589 87.1953 39.3724 86.8047 39.4141 86.3359H40.7812C40.7552 86.8203 40.5885 87.2812 40.2812 87.7188C39.974 88.1562 39.5625 88.5052 39.0469 88.7656C38.5365 89.026 37.9948 89.1562 37.4219 89.1562C36.2708 89.1562 35.3542 88.7734 34.6719 88.0078C33.9948 87.237 33.6562 86.1849 33.6562 84.8516V84.6094C33.6562 83.7865 33.8073 83.0547 34.1094 82.4141C34.4115 81.7734 34.8438 81.276 35.4062 80.9219C35.974 80.5677 36.6432 80.3906 37.4141 80.3906C38.362 80.3906 39.1484 80.6745 39.7734 81.2422C40.4036 81.8099 40.7396 82.5469 40.7812 83.4531H39.4141C39.3724 82.9062 39.1641 82.4583 38.7891 82.1094C38.4193 81.7552 37.9609 81.5781 37.4141 81.5781C36.6797 81.5781 36.1094 81.8438 35.7031 82.375C35.3021 82.901 35.1016 83.6641 35.1016 84.6641V84.9375C35.1016 85.9115 35.3021 86.6615 35.7031 87.1875C36.1042 87.7135 36.6771 87.9766 37.4219 87.9766ZM43.7656 87.8203H48.7109V89H42V87.9375L46.6641 81.7422H42.0703V80.5469H48.4766V81.5703L43.7656 87.8203ZM53.7266 89.1562C52.5807 89.1562 51.6484 88.7812 50.9297 88.0312C50.2109 87.276 49.8516 86.2682 49.8516 85.0078V84.7422C49.8516 83.9036 50.0104 83.1562 50.3281 82.5C50.651 81.8385 51.099 81.3229 51.6719 80.9531C52.25 80.5781 52.875 80.3906 53.5469 80.3906C54.6458 80.3906 55.5 80.7526 56.1094 81.4766C56.7188 82.2005 57.0234 83.237 57.0234 84.5859V85.1875H51.2969C51.3177 86.0208 51.5599 86.6953 52.0234 87.2109C52.4922 87.7214 53.0859 87.9766 53.8047 87.9766C54.3151 87.9766 54.7474 87.8724 55.1016 87.6641C55.4557 87.4557 55.7656 87.1797 56.0312 86.8359L56.9141 87.5234C56.2057 88.612 55.1432 89.1562 53.7266 89.1562ZM53.5469 81.5781C52.9635 81.5781 52.474 81.7917 52.0781 82.2188C51.6823 82.6406 51.4375 83.2344 51.3438 84H55.5781V83.8906C55.5365 83.1562 55.3385 82.5885 54.9844 82.1875C54.6302 81.7812 54.151 81.5781 53.5469 81.5781ZM60.0625 80.5469L60.1016 81.4844C60.7214 80.7552 61.5573 80.3906 62.6094 80.3906C63.7917 80.3906 64.5964 80.8438 65.0234 81.75C65.3047 81.3438 65.6693 81.0156 66.1172 80.7656C66.5703 80.5156 67.1042 80.3906 67.7188 80.3906C69.5729 80.3906 70.5156 81.3724 70.5469 83.3359V89H69.1016V83.4219C69.1016 82.8177 68.9635 82.3672 68.6875 82.0703C68.4115 81.7682 67.9479 81.6172 67.2969 81.6172C66.7604 81.6172 66.3151 81.7786 65.9609 82.1016C65.6068 82.4193 65.401 82.849 65.3438 83.3906V89H63.8906V83.4609C63.8906 82.2318 63.2891 81.6172 62.0859 81.6172C61.138 81.6172 60.4896 82.0208 60.1406 82.8281V89H58.6953V80.5469H60.0625ZM77.9531 89C77.8698 88.8333 77.8021 88.5365 77.75 88.1094C77.0781 88.8073 76.276 89.1562 75.3438 89.1562C74.5104 89.1562 73.8255 88.9219 73.2891 88.4531C72.7578 87.9792 72.4922 87.3802 72.4922 86.6562C72.4922 85.776 72.8255 85.0938 73.4922 84.6094C74.1641 84.1198 75.1068 83.875 76.3203 83.875H77.7266V83.2109C77.7266 82.7057 77.5755 82.3047 77.2734 82.0078C76.9714 81.7057 76.526 81.5547 75.9375 81.5547C75.4219 81.5547 74.9896 81.6849 74.6406 81.9453C74.2917 82.2057 74.1172 82.5208 74.1172 82.8906H72.6641C72.6641 82.4688 72.8125 82.0625 73.1094 81.6719C73.4115 81.276 73.8177 80.9635 74.3281 80.7344C74.8438 80.5052 75.4089 80.3906 76.0234 80.3906C76.9974 80.3906 77.7604 80.6354 78.3125 81.125C78.8646 81.6094 79.151 82.2786 79.1719 83.1328V87.0234C79.1719 87.7995 79.2708 88.4167 79.4688 88.875V89H77.9531ZM75.5547 87.8984C76.0078 87.8984 76.4375 87.7812 76.8438 87.5469C77.25 87.3125 77.5443 87.0078 77.7266 86.6328V84.8984H76.5938C74.8229 84.8984 73.9375 85.4167 73.9375 86.4531C73.9375 86.9062 74.0885 87.2604 74.3906 87.5156C74.6927 87.7708 75.0807 87.8984 75.5547 87.8984Z" fill="#071330"/>
<path d="M36 21C36 26.0768 36 29.4232 36 34.5" stroke="white"/>
<line x1="29" y1="27.5" x2="43" y2="27.5" stroke="white"/>
<defs>
<filter id="filter0_d_0_178" x="0" y="4.5714" width="72" height="72" filterUnits="userSpaceOnUse" color-interpolation-filters="sRGB">
<feFlood flood-opacity="0" result="BackgroundImageFix"/>
<feColorMatrix in="SourceAlpha" type="matrix" values="0 0 0 0 0 0 0 0 0 0 0 0 0 0 0 0 0 0 127 0" result="hardAlpha"/>
<feOffset dy="12.5714"/>
<feGaussianBlur stdDeviation="12"/>
<feColorMatrix type="matrix" values="0 0 0 0 0.607843 0 0 0 0 0.470588 0 0 0 0 0.992157 0 0 0 0.2 0"/>
<feBlend mode="normal" in2="BackgroundImageFix" result="effect1_dropShadow_0_178"/>
<feBlend mode="normal" in="SourceGraphic" in2="effect1_dropShadow_0_178" result="shape"/>
</filter>
</defs>
</svg>
